<svg width="39" height="30" viewBox="0 0 39 30" fill="none" xmlns="http://www.w3.org/2000/svg">
<path d="M5.11678 30H33.308C36.73 30 38.4248 28.3053 38.4248 24.9484V5.0516C38.4248 1.69473 36.73 0 33.308 0H5.11678C1.71103 0 0 1.67844 0 5.0516V24.9484C0 28.3216 1.71103 30 5.11678 30ZM12.2216 15.3992C10.0054 15.3992 8.19663 13.5904 8.19663 11.3743C8.19663 9.17436 10.0054 7.34927 12.2216 7.34927C14.4215 7.34927 16.2303 9.17436 16.2303 11.3743C16.2303 13.5904 14.4215 15.3992 12.2216 15.3992ZM5.14938 27.3764C3.56871 27.3764 2.62357 26.4313 2.62357 24.8343V23.8403L7.62629 19.4731C8.34329 18.8376 9.12548 18.5117 9.84248 18.5117C10.641 18.5117 11.472 18.8376 12.189 19.5057L15.3015 22.3085L23.0907 15.3992C23.8892 14.6822 24.7854 14.3563 25.7143 14.3563C26.6105 14.3563 27.5394 14.6985 28.3053 15.4155L35.8012 22.3574V24.8669C35.8012 26.4313 34.8398 27.3764 33.2917 27.3764H5.14938Z" fill="white"/>
</svg>
