<svg width="34" height="31" viewBox="0 0 34 31" fill="none" xmlns="http://www.w3.org/2000/svg">
<path d="M5.09275 31H28.3392C31.4435 31 33.06 29.3978 33.06 26.3364V4.66359C33.06 1.60222 31.4435 0 28.3392 0H11.2155C8.11121 0 6.509 1.60222 6.509 4.66359V28.1532C6.509 29.6124 6.15136 30.4278 5.09275 31ZM12.6031 8.94093C12.0452 8.94093 11.6304 8.51177 11.6304 7.96816C11.6304 7.43886 12.0309 7.024 12.6031 7.024H26.9802C27.5238 7.024 27.9386 7.43886 27.9386 7.96816C27.9386 8.51177 27.5238 8.94093 26.9802 8.94093H12.6031ZM0 14.2054V26.8371C0 28.0245 0.88694 28.6682 1.85971 28.6682C2.84679 28.6682 3.71943 28.0245 3.71943 26.8371V11.0295H3.14721C1.34472 11.0295 0 12.1597 0 14.2054ZM12.6031 13.8763C12.0309 13.8763 11.6304 13.4615 11.6304 12.9322C11.6304 12.3886 12.0452 11.9594 12.6031 11.9594H26.9802C27.5238 11.9594 27.9386 12.3886 27.9386 12.9322C27.9386 13.4615 27.5238 13.8763 26.9802 13.8763H12.6031ZM13.3327 23.8616C12.2598 23.8616 11.6018 23.2178 11.6018 22.1449V18.6257C11.6018 17.5671 12.2598 16.9091 13.3327 16.9091H16.7374C17.8246 16.9091 18.4684 17.5671 18.4684 18.6257V22.1449C18.4684 23.2178 17.8246 23.8616 16.7374 23.8616H13.3327ZM21.2866 18.826C20.7287 18.826 20.3138 18.4112 20.3138 17.8819C20.3138 17.3383 20.7144 16.9091 21.2866 16.9091H26.9802C27.5238 16.9091 27.9386 17.3383 27.9386 17.8819C27.9386 18.4112 27.5238 18.826 26.9802 18.826H21.2866ZM21.2866 23.8043C20.7144 23.8043 20.3138 23.3895 20.3138 22.8602C20.3138 22.3166 20.7287 21.8874 21.2866 21.8874H26.9802C27.5238 21.8874 27.9386 22.3166 27.9386 22.8602C27.9386 23.3895 27.5238 23.8043 26.9802 23.8043H21.2866Z" fill="white"/>
</svg>
