<svg width="39" height="32" viewBox="0 0 39 32" fill="none" xmlns="http://www.w3.org/2000/svg">
<path d="M5.13357 31.1774H33.2864C36.7034 31.1774 38.42 29.4771 38.42 26.1092V8.99191C38.42 5.62403 36.7034 3.94009 33.2864 3.94009H29.4771C28.2019 3.94009 27.7932 3.67851 27.0738 2.86106L25.7496 1.38966C24.9321 0.490468 24.0983 0 22.4144 0H15.8912C14.2072 0 13.3734 0.490468 12.556 1.38966L11.2481 2.86106C10.5287 3.66216 10.12 3.94009 8.84477 3.94009H5.13357C1.71664 3.94009 0 5.62403 0 8.99191V26.1092C0 29.4771 1.71664 31.1774 5.13357 31.1774ZM19.21 25.9458C14.2726 25.9458 10.2998 21.973 10.2998 17.0029C10.2998 12.0328 14.2726 8.06003 19.21 8.06003C24.1637 8.06003 28.1365 12.0328 28.1365 17.0029C28.1365 21.973 24.1637 25.9458 19.21 25.9458ZM30.9649 13.0138C29.8532 13.0138 28.9376 12.1146 28.9376 11.0028C28.9376 9.87476 29.8532 8.97557 30.9649 8.97557C32.0766 8.97557 32.9922 9.87476 32.9922 11.0028C32.9922 12.1146 32.0766 13.0138 30.9649 13.0138ZM19.21 23.4607C22.7741 23.4607 25.6678 20.5833 25.6678 17.0029C25.6678 13.4225 22.7741 10.5451 19.21 10.5451C15.6459 10.5451 12.7685 13.4225 12.7685 17.0029C12.7685 20.5833 15.6623 23.4607 19.21 23.4607Z" fill="white"/>
</svg>
