<svg width="14" height="14" viewBox="0 0 14 14" fill="none" xmlns="http://www.w3.org/2000/svg">
<path d="M3.41078 7.74115C3.27353 7.74115 3.15915 7.6954 3.06764 7.6039C2.97614 7.51241 2.93039 7.39802 2.93039 7.26075C2.93039 7.12808 2.97614 7.01599 3.06764 6.9245C3.15915 6.833 3.27353 6.78724 3.41078 6.78724H6.5196V2.63529C6.5196 2.50261 6.56535 2.39052 6.65686 2.29901C6.74836 2.20751 6.86045 2.16176 6.99313 2.16176C7.13036 2.16176 7.24475 2.20751 7.3363 2.29901C7.4278 2.39052 7.47354 2.50261 7.47354 2.63529V7.26075C7.47354 7.39802 7.4278 7.51241 7.3363 7.6039C7.24475 7.6954 7.13036 7.74115 6.99313 7.74115H3.41078ZM6.99999 14C7.95622 14 8.85638 13.817 9.70047 13.4509C10.5446 13.085 11.2892 12.5794 11.9343 11.9343C12.5794 11.2892 13.085 10.5446 13.4509 9.70047C13.817 8.85638 14 7.95622 14 6.99999C14 6.04378 13.817 5.14362 13.4509 4.2995C13.085 3.45539 12.5794 2.71078 11.9343 2.06568C11.2892 1.42059 10.5435 0.915032 9.69703 0.549019C8.85064 0.183006 7.94934 0 6.99313 0C6.03692 0 5.13676 0.183006 4.29264 0.549019C3.44853 0.915032 2.70506 1.42059 2.06225 2.06568C1.41944 2.71078 0.915032 3.45539 0.549019 4.2995C0.183006 5.14362 0 6.04378 0 6.99999C0 7.95622 0.183006 8.85638 0.549019 9.70047C0.915032 10.5446 1.42059 11.2892 2.06568 11.9343C2.71078 12.5794 3.45539 13.085 4.2995 13.4509C5.14362 13.817 6.04378 14 6.99999 14Z" fill="white"/>
</svg>
