<svg width="14" height="14" viewBox="0 0 14 14" fill="none" xmlns="http://www.w3.org/2000/svg">
<path fill-rule="evenodd" clip-rule="evenodd" d="M0.529344 13.5677L3.17773 12.873L3.43325 13.0246C4.50761 13.6622 5.73914 13.9995 6.99477 14H6.99761C10.8544 14 13.9934 10.8609 13.995 7.00253C13.9957 5.13279 13.2685 3.37474 11.9474 2.05208C10.6263 0.729414 8.86938 0.000648022 7.00036 0C3.1406 0 0.0015333 3.13879 5.92384e-07 6.99686C-0.000540352 8.31906 0.369407 9.60671 1.06986 10.7208L1.23624 10.9855L0.529344 13.5677ZM10.9509 8.81559C11.0976 8.8865 11.1967 8.93438 11.239 9.005C11.2915 9.0927 11.2915 9.51389 11.1163 10.0053C10.941 10.4967 10.1006 10.9452 9.69639 11.0055C9.33399 11.0597 8.87536 11.0823 8.37145 10.9222C8.06592 10.8253 7.67412 10.6958 7.17224 10.4791C5.20015 9.62753 3.86743 7.71616 3.61556 7.35492C3.59791 7.32961 3.58557 7.31192 3.57869 7.30272L3.57699 7.30046C3.46567 7.15193 2.71974 6.15668 2.71974 5.12663C2.71974 4.15766 3.19571 3.64978 3.4148 3.416C3.42981 3.39998 3.44361 3.38525 3.45598 3.37175C3.64879 3.16114 3.8767 3.10849 4.01693 3.10849C4.15715 3.10849 4.29754 3.10979 4.42011 3.11594C4.43523 3.1167 4.45096 3.11661 4.46722 3.11652C4.58981 3.1158 4.74264 3.1149 4.8934 3.47705C4.95141 3.61642 5.03628 3.82305 5.12579 4.04097C5.3068 4.48165 5.50679 4.96853 5.54198 5.03899C5.59458 5.14429 5.62963 5.26709 5.55951 5.40754C5.54899 5.4286 5.53925 5.44848 5.52995 5.46747C5.47729 5.57498 5.43855 5.65407 5.34916 5.75844C5.31402 5.79948 5.27769 5.84372 5.24136 5.88796C5.16899 5.97609 5.09663 6.06422 5.03362 6.12699C4.92831 6.23189 4.81868 6.3457 4.94139 6.5563C5.0641 6.7669 5.48627 7.45573 6.11163 8.01355C6.78387 8.61315 7.36812 8.86658 7.66427 8.99504C7.7221 9.02012 7.76895 9.04044 7.80331 9.05764C8.01359 9.16297 8.13631 9.14535 8.25903 9.005C8.38174 8.86461 8.78488 8.39073 8.9251 8.18016C9.06531 7.96964 9.2056 8.00471 9.39838 8.07488C9.59125 8.14515 10.6255 8.65399 10.8358 8.75927C10.8769 8.77983 10.9153 8.79839 10.9509 8.81559Z" fill="white"/>
</svg>
