<svg width="40" height="40" viewBox="0 0 40 40" fill="none" xmlns="http://www.w3.org/2000/svg">
<path d="M34.8216 0H5.17825C2.31832 0 0 2.31833 0 5.17825V34.8218C0 37.6817 2.31832 40 5.17825 40H34.8216C37.6815 40 40 37.6817 40 34.8218V5.17825C39.9998 2.31848 37.6815 0 34.8216 0Z" fill="url(#paint0_linear_527_657)"/>
<path d="M5.06017 18.25C5.36103 17.0571 5.60172 15.8641 6.02293 14.7309C9.5731 5.12773 21.8483 1.84716 29.7309 8.46795C30.0317 8.70654 30.2724 9.00477 30.6936 9.36265C30.2122 9.72053 29.8512 10.0188 29.43 10.3766C24.4959 6.26102 19.0803 5.36632 13.3038 8.70654C9.39259 10.9135 7.34672 14.4326 6.86534 18.9658C10.7164 18.9658 14.5072 18.9658 18.3583 18.9658C18.3583 15.8045 18.3583 12.6432 18.3583 9.48194C22.8712 7.93113 29.9715 11.8678 30.5733 17.7132C29.6105 17.9518 29.069 17.6536 28.6478 16.6396C27.3841 13.2993 23.7136 10.8538 20.1634 10.9731C20.1634 12.5836 20.1634 14.2537 20.1634 15.8641C20.1634 17.4746 20.1634 19.0851 20.1634 20.8745C15.0488 20.8745 9.99431 20.8745 5 20.8745C5.06017 19.9798 5.06017 19.1447 5.06017 18.25Z" fill="white"/>
<path d="M10.8365 29.5233C16.252 34.1758 22.3896 33.9372 26.8423 31.3127C30.8137 28.9865 32.9799 25.4673 33.4613 20.7552C32.4986 20.8149 31.7765 20.8149 30.9942 20.8745C30.573 23.9165 29.3094 26.4813 26.9025 28.3304C24.7363 30.0601 22.2091 30.8356 19.381 30.7163C18.7191 30.7163 18.4784 30.418 18.4784 29.7619C18.4784 27.4953 18.4784 25.2884 18.4784 23.0218C18.4784 22.3657 18.7191 22.0078 19.3208 22.0078C19.9827 22.0078 20.103 22.485 20.103 23.0815C20.103 24.9902 20.103 26.8989 20.103 28.8076C21.7277 29.1058 23.0515 28.6286 24.3151 27.9129C27.3237 26.1831 29.3094 23.7376 29.2492 20.0991C29.2492 19.1448 29.5501 18.9062 30.4527 18.9658C31.957 19.0255 33.4613 18.9658 34.9656 18.9658C35.3267 21.0535 34.9055 23.0218 34.1834 24.8112C32.6189 28.8672 29.851 31.9688 25.6389 33.5793C20.2234 35.7266 15.1689 34.8319 10.5958 31.3724C9.57287 30.597 9.63304 30.418 10.8365 29.5233Z" fill="white"/>
<defs>
<linearGradient id="paint0_linear_527_657" x1="-0.00144778" y1="1.50049" x2="39.9995" y2="40.0012" gradientUnits="userSpaceOnUse">
<stop stop-color="#82009F"/>
<stop offset="1" stop-color="#5D34AF"/>
</linearGradient>
</defs>
</svg>
