<svg width="123" height="60" viewBox="0 0 123 60" fill="none" xmlns="http://www.w3.org/2000/svg">
<path d="M0.120345 26.7336C0.722069 24.3267 1.20345 21.9198 2.04586 19.6332C9.1462 0.257709 33.6965 -6.36125 49.4617 6.99702C50.0634 7.4784 50.5448 8.08012 51.3872 8.80219C50.4245 9.52426 49.7024 10.126 48.86 10.8481C38.9917 2.54426 28.1607 0.73909 16.6076 7.4784C8.78517 11.9312 4.69345 19.0315 3.73069 28.1777C11.4328 28.1777 19.0145 28.1777 26.7165 28.1777C26.7165 21.7994 26.7165 15.4212 26.7165 9.04288C35.7424 5.91392 49.9431 13.8567 51.1465 25.6505C49.221 26.1318 48.1379 25.5301 47.2955 23.4843C44.7683 16.7449 37.4272 11.8108 30.3269 12.0515C30.3269 15.3008 30.3269 18.6705 30.3269 21.9198C30.3269 25.1691 30.3269 28.4184 30.3269 32.0287C20.0976 32.0287 9.98862 32.0287 0 32.0287C0.120345 30.2236 0.120345 28.5387 0.120345 26.7336Z" fill="url(#paint0_linear_182_117)"/>
<path d="M11.6735 49.4787C22.5045 58.8656 34.7797 58.3842 43.6852 53.0891C51.6279 48.3956 55.9604 41.2953 56.9231 31.788C54.9976 31.9084 53.5535 31.9084 51.989 32.0287C51.1466 38.1663 48.6193 43.3411 43.8055 47.0718C39.4731 50.5618 34.4186 52.1263 28.7624 51.8856C27.4386 51.8856 26.9573 51.2839 26.9573 49.9601C26.9573 45.387 26.9573 40.9343 26.9573 36.3611C26.9573 35.0374 27.4386 34.3153 28.6421 34.3153C29.9659 34.3153 30.2066 35.278 30.2066 36.4815C30.2066 40.3325 30.2066 44.1836 30.2066 48.0346C33.4559 48.6363 36.1035 47.6736 38.6307 46.2294C44.6479 42.7394 48.6193 37.8053 48.499 30.4643C48.499 28.5387 49.1007 28.0574 50.9059 28.1777C53.9145 28.298 56.9231 28.1777 59.9317 28.1777C60.6538 32.3898 59.8114 36.3611 58.3673 39.9715C55.2383 48.1549 49.7024 54.4129 41.2783 57.6622C30.4473 61.9946 20.3383 60.1894 11.1921 53.2094C9.14623 51.6449 9.26658 51.2839 11.6735 49.4787Z" fill="url(#paint1_linear_182_117)"/>
<path d="M64.4834 34.9897H66.6147C66.6636 35.4194 66.8906 35.7686 67.2959 36.0371C67.7061 36.3008 68.2065 36.4326 68.7974 36.4326C69.3833 36.4326 69.8594 36.3081 70.2256 36.0591C70.5967 35.8052 70.7822 35.4829 70.7822 35.0923C70.7822 34.7505 70.6455 34.4746 70.3721 34.2646C70.0986 34.0547 69.6421 33.8789 69.0024 33.7373L67.6255 33.437C65.687 33.022 64.7178 32.0381 64.7178 30.4854C64.7178 29.5186 65.0938 28.7373 65.8457 28.1416C66.6025 27.5459 67.5742 27.248 68.7607 27.248C69.9814 27.248 70.9556 27.5386 71.6831 28.1196C72.4106 28.6958 72.7842 29.4648 72.8037 30.4268H70.731C70.6968 29.9824 70.499 29.6333 70.1377 29.3794C69.7812 29.1206 69.3247 28.9912 68.7681 28.9912C68.2212 28.9912 67.7793 29.1108 67.4424 29.3501C67.1104 29.5894 66.9443 29.9043 66.9443 30.2949C66.9443 30.6172 67.0786 30.8784 67.3472 31.0786C67.6206 31.2788 68.0625 31.4497 68.6729 31.5913L69.9546 31.8623C71.0142 32.0869 71.7856 32.4385 72.269 32.917C72.7524 33.3906 72.9941 34.0303 72.9941 34.8359C72.9941 35.8613 72.6084 36.6768 71.8369 37.2822C71.0654 37.8828 70.0229 38.1831 68.7095 38.1831C67.4351 38.1831 66.4194 37.8999 65.6626 37.3335C64.9106 36.7622 64.5176 35.981 64.4834 34.9897ZM79.8452 38H77.6333V29.2549H74.5791V27.4312H82.9067V29.2549H79.8452V38ZM87.0918 27.4312V34.0449C87.0918 34.7334 87.2847 35.2803 87.6704 35.6855C88.061 36.0859 88.6079 36.2861 89.311 36.2861C90.0093 36.2861 90.5513 36.0859 90.937 35.6855C91.3276 35.2803 91.5229 34.7334 91.5229 34.0449V27.4312H93.7349V34.2646C93.7349 35.4365 93.332 36.3838 92.5264 37.1064C91.7256 37.8242 90.6538 38.1831 89.311 38.1831C87.9634 38.1831 86.8867 37.8242 86.0811 37.1064C85.2803 36.3838 84.8799 35.4365 84.8799 34.2646V27.4312H87.0918ZM96.25 27.4312H100.286C101.877 27.4312 103.115 27.8877 103.999 28.8008C104.883 29.7139 105.325 31.0054 105.325 32.6753C105.325 34.3501 104.88 35.6562 103.992 36.5938C103.108 37.5312 101.873 38 100.286 38H96.25V27.4312ZM98.4619 29.2549V36.1689H100.022C101.013 36.1689 101.768 35.8735 102.285 35.2827C102.808 34.687 103.069 33.8203 103.069 32.6826C103.069 31.5791 102.805 30.7319 102.278 30.1411C101.75 29.5503 100.999 29.2549 100.022 29.2549H98.4619ZM109.715 38H107.503V27.4312H109.715V38ZM113.263 28.7202C114.181 27.7388 115.423 27.248 116.991 27.248C118.558 27.248 119.798 27.7388 120.711 28.7202C121.629 29.7017 122.088 31.0347 122.088 32.7192C122.088 34.3989 121.629 35.7295 120.711 36.7109C119.793 37.6924 118.553 38.1831 116.991 38.1831C115.423 38.1831 114.181 37.6924 113.263 36.7109C112.35 35.7295 111.893 34.3989 111.893 32.7192C111.893 31.0347 112.35 29.7017 113.263 28.7202ZM119.056 30.0752C118.543 29.4209 117.855 29.0938 116.991 29.0938C116.126 29.0938 115.436 29.4209 114.918 30.0752C114.405 30.7295 114.149 31.6108 114.149 32.7192C114.149 33.8228 114.405 34.7017 114.918 35.356C115.431 36.0054 116.122 36.3301 116.991 36.3301C117.855 36.3301 118.543 36.0054 119.056 35.356C119.569 34.7017 119.825 33.8228 119.825 32.7192C119.825 31.6108 119.569 30.7295 119.056 30.0752Z" fill="url(#paint2_linear_182_117)"/>
<defs>
<linearGradient id="paint0_linear_182_117" x1="0" y1="32.0293" x2="51.3872" y2="32.0293" gradientUnits="userSpaceOnUse">
<stop stop-color="#82009F"/>
<stop offset="1" stop-color="#5D34AF"/>
</linearGradient>
<linearGradient id="paint1_linear_182_117" x1="9.75537" y1="60.0005" x2="60.195" y2="60.0005" gradientUnits="userSpaceOnUse">
<stop stop-color="#82009F"/>
<stop offset="1" stop-color="#5D34AF"/>
</linearGradient>
<linearGradient id="paint2_linear_182_117" x1="64" y1="42.0003" x2="123" y2="42.0003" gradientUnits="userSpaceOnUse">
<stop stop-color="#82009F"/>
<stop offset="1" stop-color="#5D34AF"/>
</linearGradient>
</defs>
</svg>
