<svg width="13" height="8" viewBox="0 0 13 8" fill="none" xmlns="http://www.w3.org/2000/svg">
<path d="M6.34737 8C10.1373 8 12.6855 4.94403 12.6855 3.99769C12.6855 3.05136 10.1281 0 6.34737 0C2.61281 0 0 3.05136 0 3.99769C0 4.94403 2.60358 8 6.34737 8ZM6.34737 7.09521C3.40219 7.09521 1.07098 4.64397 1.07098 3.99769C1.07098 3.45759 3.40219 0.904789 6.34737 0.904789C9.27871 0.904789 11.6145 3.45759 11.6145 3.99769C11.6145 4.64397 9.27871 7.09521 6.34737 7.09521ZM6.34737 6.47663C7.72302 6.47663 8.82631 5.34564 8.82631 3.99769C8.82631 2.61743 7.72302 1.52337 6.34737 1.52337C4.96249 1.52337 3.85459 2.61743 3.8592 3.99769C3.86844 5.34564 4.96249 6.47663 6.34737 6.47663ZM6.34276 4.79631C5.8996 4.79631 5.53953 4.43624 5.53953 3.99769C5.53953 3.55915 5.8996 3.19908 6.34276 3.19908C6.78592 3.19908 7.14599 3.55915 7.14599 3.99769C7.14599 4.43624 6.78592 4.79631 6.34276 4.79631Z" fill="#888888"/>
</svg>
