<svg width="61" height="60" viewBox="0 0 61 60" fill="none" xmlns="http://www.w3.org/2000/svg">
<path d="M30.2206 0C13.5305 0 0 13.4322 0 29.9996C0 46.5678 13.5305 60 30.2206 60C46.9106 60 60.4412 46.5678 60.4412 29.9996C60.4412 13.433 46.9106 0 30.2206 0ZM58.4757 29.9996C58.4757 45.4902 45.826 58.0485 30.2206 58.0485C14.6152 58.0485 1.9655 45.4902 1.9655 29.9996C1.9655 14.5098 14.616 1.95063 30.2206 1.95063C45.8252 1.95063 58.4757 14.5098 58.4757 29.9996Z" fill="#404040"/>
<path d="M44.8675 17.2715C45.2774 17.7093 45.8694 18.4152 46.2017 18.8437L52.3212 14.9876C52.0156 14.5908 51.528 13.9876 51.1648 13.5624L47.2889 16.1062L47.0242 16.3317L47.2212 16.046L48.9329 12.656L47.7222 11.4547L44.3055 13.1531L44.0183 13.3486L44.2471 13.0863L46.8104 9.24097C46.3595 8.86003 45.9262 8.51084 45.3743 8.08813L41.4892 14.1572C41.9818 14.5331 42.6306 15.0845 43.0439 15.4604L46.701 13.5766L46.9348 13.4054L46.7628 13.6384L44.8675 17.2724V17.2715ZM30.9812 9.5793L32.6537 5.86183L32.7597 5.53185L32.7296 5.87519L32.905 10.8441C33.492 10.8992 34.0981 10.9802 34.6951 11.0788L34.4229 3.7199C33.588 3.628 32.7564 3.56284 31.9247 3.52776L30.2774 7.58607L30.2189 7.88764L30.1605 7.5869L28.5156 3.52776C27.6831 3.56284 26.8515 3.628 26.0165 3.7199L25.7452 11.0797C26.3422 10.9794 26.9475 10.9009 27.5345 10.8441L27.7099 5.87519L27.6798 5.53185L27.7867 5.86099L29.4583 9.5793H30.9812ZM17.4574 15.4446C18.4242 14.4337 18.9711 13.2659 18.0051 12.1515C17.4791 11.5466 16.5957 11.4138 15.8634 11.712L15.7908 11.7404L15.8142 11.677C15.9227 11.3896 15.992 10.4723 15.2046 9.83911C14.8206 9.53001 14.3396 9.41556 13.852 9.46485C12.9444 9.55674 12.2464 10.1724 10.3452 12.2768C9.77071 12.9117 8.93575 13.9141 8.43477 14.5624L13.6566 19.4803C15.3875 17.579 16.093 16.8714 17.4574 15.4446ZM10.6441 14.2416C11.6945 12.9643 12.8125 11.8056 13.3193 11.347C13.4796 11.2025 13.6533 11.0579 13.8645 11.0011C14.2077 10.9076 14.5617 11.1498 14.641 11.499C14.7212 11.8499 14.4991 12.1832 14.2519 12.458C13.6959 13.0812 11.6561 15.1989 11.6561 15.1989L10.6432 14.2416H10.6441ZM12.6889 16.168C12.6889 16.168 14.6753 14.0829 15.324 13.4162C15.5812 13.1514 15.7465 12.9902 15.9244 12.9041C16.1532 12.793 16.4036 12.7705 16.6282 12.9183C16.8478 13.0654 16.9497 13.3168 16.8946 13.5674C16.8286 13.8657 16.5832 14.1497 16.3811 14.3669L13.7476 17.1646L12.6889 16.168Z" fill="#404040"/>
<path d="M48.1422 29.9996H30.2206V12.2092C40.1249 12.2092 48.1422 20.1679 48.1422 29.9996ZM30.2206 29.9996V47.79C20.3163 47.79 12.299 39.8312 12.299 29.9996H30.2206Z" fill="#404040"/>
<path d="M30.2206 12.2092V29.9996H12.299C12.299 20.1679 20.3163 12.2092 30.2206 12.2092ZM48.1422 29.9996C48.1422 39.8321 40.1249 47.79 30.2206 47.79V29.9996H48.1422Z" fill="white"/>
</svg>
