<svg width="169" height="30" viewBox="0 0 169 30" fill="none" xmlns="http://www.w3.org/2000/svg">
<path fill-rule="evenodd" clip-rule="evenodd" d="M149.193 10.9539C149.634 10.9234 150.044 10.8603 150.421 10.8603C151.997 10.8603 153.13 11.112 152.657 12.8746C152.122 14.9217 150.233 15.457 148.533 15.457H147.998L149.193 10.9539ZM145.636 17.7871C145.259 19.298 144.724 21.281 143.716 22.666C145.039 22.666 146.33 22.7301 147.62 22.7301C150.265 22.7301 152.846 21.8477 153.632 18.7945C154.199 16.6843 152.814 15.9613 151.145 15.551V15.5197C152.688 14.9531 154.233 14.1347 154.673 12.4339C155.112 10.7653 153.916 10.1042 152.405 10.1042C150.705 10.1042 148.911 10.2936 147.179 10.2936C147.462 10.9539 147.179 11.9622 146.959 12.8433L145.636 17.7871ZM147.808 16.149H148.155C150.358 16.149 152.248 16.4635 151.523 19.1085C150.988 21.1865 149.573 21.9744 147.588 21.9744C146.297 21.9744 146.423 21.4705 147.021 19.2349L147.808 16.149Z" fill="#1D1D1F"/>
<path fill-rule="evenodd" clip-rule="evenodd" d="M62.6167 16.7792C61.8924 19.5492 60.003 22.1006 57.1698 22.1006C53.9912 22.1006 53.9912 18.7317 54.6829 16.1816C55.4076 13.4103 57.2961 10.8288 60.1302 10.8288C63.3096 10.8288 63.2778 14.1977 62.6167 16.7792ZM64.821 16.2126C65.7025 12.7809 64.6315 9.9791 60.5069 9.9791C56.4146 9.9791 53.4551 13.064 52.479 16.7165C51.5661 20.1795 52.6358 22.9508 56.7926 22.9508C60.8536 22.9508 63.8449 19.8964 64.821 16.2126Z" fill="#1D1D1F"/>
<path fill-rule="evenodd" clip-rule="evenodd" d="M81.3205 10.2958C80.6603 11.051 80.4394 12.0902 80.1877 13.0663C79.5893 15.3651 78.834 17.7893 78.4874 20.1186C78.3615 20.9997 78.2043 21.8816 78.4242 22.6682H75.5274C76.1572 21.6931 76.5353 20.244 76.8184 19.1739L78.5183 12.751C78.5496 12.5624 78.6128 12.3102 78.4874 12.3102C78.3288 12.3102 78.2352 12.4674 78.1402 12.5942L71.0566 22.8577L69.8297 13.349C69.7665 12.7828 69.7343 12.3102 69.5461 12.3102C69.3885 12.3102 69.2935 12.6569 69.1999 12.94L67.5309 19.237C67.121 20.7484 66.807 22.0079 67.0588 22.6682H64.7291L64.9808 22.386C65.956 21.3782 66.8702 18.3241 67.405 16.2144L68.6964 11.3977C68.8218 10.8625 68.885 10.5789 68.4756 10.2958H70.9312C71.1524 10.2958 71.4346 10.3272 71.4346 10.5789L72.1267 19.048C72.1594 19.3315 72.1267 19.646 72.2857 19.646C72.4743 19.646 72.5679 19.4574 72.7574 19.1739L78.2983 11.1142C78.5814 10.7048 78.8014 10.2958 79.3048 10.2958H81.3205Z" fill="#1D1D1F"/>
<path fill-rule="evenodd" clip-rule="evenodd" d="M91.5802 16.7792C90.8567 19.5492 88.9674 22.1006 86.1333 22.1006C82.9534 22.1006 82.9861 18.7317 83.6464 16.1816C84.3711 13.4103 86.2596 10.8288 89.0932 10.8288C92.2727 10.8288 92.2727 14.1977 91.5802 16.7792ZM93.7844 16.2126C94.6973 12.7809 93.6268 9.9791 89.4704 9.9791C85.4094 9.9791 82.4186 13.064 81.4434 16.7165C80.5619 20.1795 81.6311 22.9508 85.7557 22.9508C89.8498 22.9508 92.808 19.8964 93.7844 16.2126Z" fill="#1D1D1F"/>
<path fill-rule="evenodd" clip-rule="evenodd" d="M109.494 21.8801H111.76C112.988 21.8801 114.311 21.5962 115.445 20.7787L114.626 22.5413C114.091 22.604 113.43 22.6663 112.737 22.6663H107.039C107.637 22.0065 107.983 20.9982 108.204 20.1171L110.124 12.8435C110.345 11.9624 110.628 10.9546 110.375 10.2943H117.207L116.892 11.8057C116.357 11.2063 115.35 11.0805 114.185 11.0805H112.36L111.132 15.7094C112.643 15.7094 114.248 15.7094 115.791 15.5517C114.815 16.6846 112.579 16.6846 111.382 16.6846H110.88L109.494 21.8801Z" fill="#1D1D1F"/>
<path fill-rule="evenodd" clip-rule="evenodd" d="M141.2 16.7792C140.475 19.5492 138.586 22.1006 135.752 22.1006C132.604 22.1006 132.604 18.7317 133.265 16.1816C133.99 13.4103 135.909 10.8288 138.712 10.8288C141.891 10.8288 141.891 14.1977 141.2 16.7792ZM143.402 16.2126C144.316 12.7809 143.246 9.9791 139.12 9.9791C135.027 9.9791 132.038 13.064 131.093 16.7165C130.181 20.1795 131.251 22.9508 135.374 22.9508C139.467 22.9508 142.427 19.8964 143.402 16.2126Z" fill="#1D1D1F"/>
<path fill-rule="evenodd" clip-rule="evenodd" d="M166.321 16.7792C165.597 19.5492 163.677 22.1006 160.875 22.1006C157.695 22.1006 157.695 18.7317 158.387 16.1816C159.112 13.4103 161.001 10.8288 163.834 10.8288C166.982 10.8288 166.982 14.1977 166.321 16.7792ZM168.494 16.2126C169.407 12.7809 168.337 9.9791 164.213 9.9791C160.12 9.9791 157.16 13.064 156.184 16.7165C155.271 20.1795 156.342 22.9508 160.466 22.9508C164.559 22.9508 167.549 19.8964 168.494 16.2126Z" fill="#1D1D1F"/>
<path fill-rule="evenodd" clip-rule="evenodd" d="M104.803 21.8494C103.795 18.2919 103.639 14.1364 103.418 10.3268H101.089L100.929 10.8616C100.521 12.3734 94.8854 19.8978 93.0592 21.8494H92.3362L91.99 23.1408C92.8711 22.6996 93.784 22.6996 94.6328 22.6996H102.913C103.795 22.6996 104.677 22.6996 105.338 23.1408L105.684 21.8494H104.803ZM97.7504 17.2532L101.089 12.3416C101.182 12.247 101.372 11.869 101.56 11.869C101.749 11.869 101.78 12.2152 101.78 12.3416C101.78 12.3416 101.938 15.1752 102.158 17.0005C102.314 18.3237 102.63 20.653 102.788 21.8494H94.8223C95.1699 20.7475 96.4922 18.9217 97.7504 17.2532Z" fill="#1D1D1F"/>
<path fill-rule="evenodd" clip-rule="evenodd" d="M128.701 21.8494C127.695 18.2919 127.537 14.1364 127.285 10.3268H124.987L124.828 10.8616C124.419 12.3734 118.784 19.8978 116.958 21.8494H116.235L115.888 23.1408C116.769 22.6996 117.683 22.6996 118.532 22.6996H126.814C127.695 22.6996 128.575 22.6996 129.237 23.1408L129.583 21.8494H128.701ZM121.65 17.2532L124.987 12.3416C125.051 12.247 125.271 11.869 125.459 11.869C125.648 11.869 125.648 12.2152 125.679 12.3416C125.679 12.3416 125.837 15.1752 126.057 17.0005C126.214 18.3237 126.529 20.653 126.687 21.8494H118.721C119.036 20.7475 120.389 18.9217 121.65 17.2532Z" fill="#1D1D1F"/>
<path fill-rule="evenodd" clip-rule="evenodd" d="M49.8971 21.5976C48.6375 17.0641 48.4489 11.7753 48.1341 6.89505H45.1746L44.9851 7.58756C44.4812 9.4765 37.3035 19.1102 34.9424 21.5976H34.0299L33.6205 23.2357C34.7225 22.6677 35.8875 22.6372 36.989 22.6372H47.5347C48.6375 22.6372 49.7708 22.6677 50.621 23.2357L51.0308 21.5976H49.8971ZM40.9559 15.7422L45.2064 9.4765C45.3013 9.35063 45.5526 8.87762 45.8043 8.87762C46.0247 8.87762 46.0561 9.28747 46.0561 9.4765C46.0561 9.4765 46.2769 13.0658 46.5596 15.4269C46.749 17.0954 47.1576 20.0549 47.347 21.5976H37.2089C37.6506 20.1812 39.3496 17.8202 40.9559 15.7422Z" fill="#1D1D1F"/>
<path fill-rule="evenodd" clip-rule="evenodd" d="M0.251221 14.9552C0.251221 23.2357 6.95768 29.9426 15.2059 29.9426C23.4542 29.9426 30.1607 23.2357 30.1607 14.9552C30.1607 6.70558 23.4542 0 15.2059 0C6.95768 0 0.251221 6.70558 0.251221 14.9552ZM0.566117 14.9552C0.566117 6.86325 7.11447 0.283539 15.2059 0.283539C23.297 0.283539 29.8771 6.86325 29.8771 14.9552C29.8771 23.078 23.297 29.6586 15.2059 29.6586C7.11447 29.6586 0.566117 23.078 0.566117 14.9552Z" fill="#1D1D1F"/>
<path fill-rule="evenodd" clip-rule="evenodd" d="M2.04428 14.9551C2.04428 7.68198 7.93237 1.76298 15.2041 1.76298C22.4772 1.76298 28.3958 7.68198 28.3958 14.9551C28.3958 22.2591 22.4772 28.179 15.2041 28.179C7.93237 28.179 2.04428 22.2591 2.04428 14.9551ZM0.942366 14.9551C0.942366 22.8575 7.33393 29.2805 15.2041 29.2805C23.0752 29.2805 29.4655 22.8575 29.4655 14.9551C29.4655 7.08355 23.0752 0.661507 15.2041 0.661507C7.33393 0.661507 0.942366 7.08355 0.942366 14.9551Z" fill="#1D1D1F"/>
<path fill-rule="evenodd" clip-rule="evenodd" d="M11.0495 13.9793L9.60181 16.0586L18.3531 16.0263L17.5038 13.9793H11.0495Z" fill="#1D1D1F"/>
<path fill-rule="evenodd" clip-rule="evenodd" d="M15.55 7.87104L14.1014 9.94901L17.1236 10.0122L17.3753 7.9024L15.55 7.87104Z" fill="#1D1D1F"/>
<path fill-rule="evenodd" clip-rule="evenodd" d="M13.3152 10.8611L11.5844 13.1276H17.2812L17.0304 10.8611H13.3152Z" fill="#1D1D1F"/>
<path fill-rule="evenodd" clip-rule="evenodd" d="M6.86273 20.0253L5.3832 22.1028L24.273 22.1333L21.3445 20.0558L6.86273 20.0253Z" fill="#1D1D1F"/>
<path fill-rule="evenodd" clip-rule="evenodd" d="M18.699 3.49442L16.2121 7.05235H17.5666L18.699 3.49442Z" fill="#1D1D1F"/>
<path fill-rule="evenodd" clip-rule="evenodd" d="M8.96936 17.0309L7.49028 19.172H20.5234L18.7294 16.969L8.96936 17.0309Z" fill="#1D1D1F"/>
<path d="M34.0905 26.3012C34.109 26.2337 34.1214 26.1776 34.1214 26.1285C34.1214 26.0601 34.0967 26.0106 34.0225 25.955H34.7273C34.8015 25.955 34.8881 25.9673 34.8943 26.0477L35.1911 28.7069C35.2034 28.7996 35.1911 28.9048 35.2405 28.9048C35.2962 28.9048 35.3333 28.8429 35.3889 28.7564L37.0774 26.2147C37.1639 26.0848 37.2443 25.955 37.3989 25.955H38.0605C37.8564 26.1899 37.7946 26.5243 37.7142 26.833C37.5287 27.5754 37.3061 28.3483 37.201 29.0902C37.1763 29.2572 37.1516 29.4303 37.1516 29.5911C37.1516 29.6962 37.1639 29.8013 37.1948 29.9002H36.2859C36.471 29.5911 36.5827 29.1335 36.6693 28.7873L37.1825 26.7345C37.1948 26.7031 37.201 26.6598 37.201 26.6351C37.201 26.6104 37.1948 26.598 37.1763 26.598C37.133 26.598 37.1021 26.6413 37.0707 26.6908L34.8695 29.9621L34.4491 26.9262C34.4244 26.7464 34.3996 26.598 34.3563 26.598C34.3131 26.598 34.2821 26.7093 34.2574 26.8025L33.7504 28.812C33.67 29.1459 33.6144 29.4365 33.6144 29.6529C33.6144 29.7518 33.6267 29.8388 33.6515 29.9002H32.9152C33.2001 29.5973 33.3547 29.2325 33.4845 28.7069L34.0905 26.3012Z" fill="#1D1D1F"/>
<path d="M41.5146 28.5404C41.5146 27.1739 42.56 25.8565 44.044 25.8565C45.0704 25.8565 45.565 26.5304 45.565 27.3095C45.565 28.6826 44.5263 29.9996 43.0361 29.9996C42.0093 29.9996 41.5146 29.3194 41.5146 28.5404ZM44.9529 27.2909C44.9529 26.7035 44.6746 26.1285 43.9883 26.1285C42.844 26.1285 42.1206 27.4393 42.1206 28.5651C42.1206 29.1525 42.3988 29.7275 43.0856 29.7275C44.2356 29.7275 44.9529 28.4167 44.9529 27.2909Z" fill="#1D1D1F"/>
<path d="M52.7281 26.6855H52.7096C52.6292 26.4196 52.4932 26.129 51.8563 26.129C50.7063 26.129 50.0009 27.3347 50.0009 28.3925C50.0009 29.0603 50.36 29.5487 51.1576 29.5487C51.6894 29.5487 52.1098 29.3014 52.3386 29.1035L52.3262 29.1406C52.2582 29.4184 51.7945 30.0001 50.8295 30.0001C49.9206 30.0001 49.395 29.2396 49.395 28.4172C49.395 26.9699 50.5455 25.857 51.9305 25.857C52.2891 25.857 52.5365 25.9064 52.9507 25.9064L52.7281 26.6855Z" fill="#1D1D1F"/>
<path d="M57.1623 26.7649C57.2117 26.567 57.2612 26.3506 57.2612 26.1651C57.2612 26.0848 57.255 26.0167 57.2303 25.9545H58.0588C57.8671 26.1651 57.7867 26.4867 57.7187 26.7649L57.4776 27.7295C57.5642 27.7295 57.6816 27.68 57.83 27.5378L58.9867 26.4557C59.1656 26.295 59.2711 26.159 59.2959 26.0724C59.3082 26.0229 59.3202 25.9796 59.3202 25.9545H60.0873C59.7287 26.2084 59.4443 26.363 59.1104 26.6721L57.997 27.6924L58.807 29.1953C58.9187 29.4364 59.0856 29.7023 59.2402 29.9002H58.6343C58.523 29.9002 58.4793 29.8322 58.4364 29.7332L57.5765 28.051C57.546 27.9892 57.5147 27.9587 57.4838 27.9587C57.4405 27.9587 57.4034 28.0201 57.3787 28.119L57.1375 29.0902C57.0881 29.2819 57.0386 29.4983 57.0386 29.6776C57.0386 29.758 57.051 29.8322 57.0757 29.9002H56.2472C56.4326 29.6899 56.513 29.368 56.581 29.0902L57.1623 26.7649Z" fill="#1D1D1F"/>
<path d="M63.0671 28.5404C63.0671 27.1739 64.1125 25.8565 65.5965 25.8565C66.6229 25.8565 67.1175 26.5304 67.1175 27.3095C67.1175 28.6826 66.0788 29.9996 64.5886 29.9996C63.5618 29.9996 63.0671 29.3194 63.0671 28.5404ZM66.5054 27.2909C66.5054 26.7035 66.2272 26.1285 65.5404 26.1285C64.3965 26.1285 63.6731 27.4393 63.6731 28.5651C63.6731 29.1525 63.9513 29.7275 64.6377 29.7275C65.7882 29.7275 66.5054 28.4167 66.5054 27.2909Z" fill="#1D1D1F"/>
<path d="M72.8762 27.6614C72.8762 27.6738 72.8948 27.68 72.9257 27.6924C73.34 27.7785 73.68 28.0201 73.68 28.4529C73.68 29.5225 72.6722 29.9245 71.8127 29.9245C71.3923 29.9245 70.9842 29.8997 70.5638 29.8997C70.8296 29.6338 70.9162 29.3 71.0337 28.8239L71.5469 26.7644C71.5963 26.5666 71.652 26.3502 71.652 26.1647C71.652 26.0905 71.6396 26.0163 71.6149 25.9545C72.159 25.9545 72.6042 25.8926 73.1487 25.8926C73.5626 25.8926 73.9773 26.1028 73.9773 26.5357C73.9773 27.1297 73.4203 27.426 72.9257 27.6239C72.8948 27.6363 72.8762 27.6491 72.8762 27.6614ZM71.5963 28.8053C71.5221 29.1145 71.4665 29.3247 71.4665 29.4545C71.4665 29.6277 71.5531 29.6771 71.788 29.6771C72.5053 29.6771 73.0803 29.2629 73.0803 28.4591C73.0803 27.8964 72.5547 27.8284 71.9426 27.8284H71.8375L71.5963 28.8053ZM71.8931 27.6053H72.0601C72.6104 27.6053 73.3961 27.3889 73.3961 26.5542C73.3961 26.1956 73.0741 26.1399 72.6413 26.1399C72.5238 26.1399 72.394 26.1523 72.2517 26.1647L71.8931 27.6053Z" fill="#1D1D1F"/>
<path d="M81.2013 26.6855H81.1828C81.1024 26.4196 80.9664 26.129 80.3295 26.129C79.179 26.129 78.4741 27.3347 78.4741 28.3925C78.4741 29.0603 78.8327 29.5487 79.6308 29.5487C80.1626 29.5487 80.583 29.3014 80.8118 29.1035L80.7994 29.1406C80.7314 29.4184 80.2677 30.0001 79.3031 30.0001C78.3937 30.0001 77.8682 29.2396 77.8682 28.4172C77.8682 26.9699 79.0187 25.857 80.4037 25.857C80.7623 25.857 81.0096 25.9064 81.4239 25.9064L81.2013 26.6855Z" fill="#1D1D1F"/>
<path d="M85.6355 26.7649C85.685 26.567 85.7344 26.3506 85.7344 26.1651C85.7344 26.0848 85.7283 26.0167 85.7035 25.9545H86.5321C86.3404 26.1651 86.26 26.4867 86.192 26.7649L85.9508 27.7295C86.0374 27.7295 86.1549 27.68 86.3033 27.5378L87.46 26.4557C87.6393 26.295 87.7444 26.159 87.7691 26.0724C87.7815 26.0229 87.7934 25.9796 87.7934 25.9545H88.5606C88.2019 26.2084 87.9171 26.363 87.5836 26.6721L86.4707 27.6924L87.2807 29.1953C87.392 29.4364 87.5585 29.7023 87.713 29.9002H87.1071C86.9958 29.9002 86.9525 29.8322 86.9092 29.7332L86.0498 28.051C86.0189 27.9892 85.9879 27.9587 85.957 27.9587C85.9137 27.9587 85.8766 28.0201 85.8519 28.119L85.6108 29.0902C85.5613 29.2819 85.5118 29.4983 85.5118 29.6776C85.5118 29.758 85.5242 29.8322 85.5489 29.9002H84.7204C84.9059 29.6899 84.9863 29.368 85.0543 29.0902L85.6355 26.7649Z" fill="#1D1D1F"/>
<path d="M92.3574 28.9246C92.3512 28.9617 92.3512 28.9802 92.364 28.9802C92.376 28.9802 92.3883 28.974 92.4069 28.9555L94.9362 26.1541C95.0661 26.0309 95.2021 25.9562 95.3628 25.9562H95.7091C95.5112 26.2035 95.4309 26.488 95.3628 26.7667L94.7812 29.0915C94.7388 29.277 94.6884 29.4753 94.6884 29.6542C94.6884 29.7412 94.7008 29.8215 94.726 29.9015H93.8846C94.0763 29.6542 94.1571 29.3697 94.2252 29.0915L94.7874 26.8404C94.794 26.8037 94.794 26.7728 94.7812 26.7728C94.7693 26.7728 94.7507 26.7852 94.726 26.8161L91.9118 29.9015H91.4171C91.6093 29.6542 91.6896 29.3697 91.7572 29.0915L92.3389 26.7667C92.3883 26.575 92.4316 26.3829 92.4316 26.1974C92.4316 26.117 92.425 26.0309 92.4007 25.9562H93.2416C93.0437 26.2035 92.9629 26.488 92.8953 26.7667L92.3574 28.9246Z" fill="#1D1D1F"/>
<path d="M99.8523 28.9246C99.8461 28.9617 99.8461 28.9802 99.8589 28.9802C99.8708 28.9802 99.8832 28.9741 99.9018 28.9555L102.431 26.1541C102.561 26.0309 102.697 25.9563 102.858 25.9563H103.204C103.006 26.2036 102.926 26.488 102.858 26.7667L102.277 29.0915C102.234 29.277 102.184 29.4753 102.184 29.6542C102.184 29.7412 102.196 29.8216 102.221 29.9015H101.38C101.572 29.6542 101.652 29.3698 101.72 29.0915L102.282 26.8404C102.289 26.8038 102.289 26.7729 102.277 26.7729C102.264 26.7729 102.246 26.7852 102.221 26.8161L99.4071 29.9015H98.9125C99.1041 29.6542 99.1845 29.3698 99.2525 29.0915L99.8337 26.7667C99.8832 26.575 99.9269 26.3829 99.9269 26.1974C99.9269 26.117 99.9203 26.0309 99.8956 25.9563H100.736C100.539 26.2036 100.458 26.488 100.39 26.7667L99.8523 28.9246ZM101.132 24.8247C101.12 25.1895 101.262 25.4369 101.664 25.4369C102.097 25.4369 102.326 25.2143 102.511 24.8247H102.685C102.492 25.3812 102.202 25.7836 101.609 25.7836C101.015 25.7836 100.867 25.3503 100.971 24.8247H101.132Z" fill="#1D1D1F"/>
<path d="M114.378 29.9006L114.125 28.1689H112.708C112.313 28.7073 111.88 29.3132 111.793 29.6657C111.775 29.746 111.762 29.8202 111.756 29.9006H110.983L111.162 29.7275C111.62 29.2823 113.537 26.6231 113.686 26.1223L113.735 25.9553H114.465C114.551 27.1858 114.613 28.5275 114.947 29.6718L115.015 29.9006H114.378ZM113.976 26.5366C113.97 26.4933 113.976 26.3882 113.921 26.3882C113.865 26.3882 113.796 26.5056 113.778 26.5366L112.876 27.9216H114.081L113.976 26.5366Z" fill="#1D1D1F"/>
<path d="M119.06 28.9114C119.121 29.2638 119.474 29.7337 120.043 29.7337C121.044 29.7337 121.626 28.8433 121.83 27.9901H121.552C121.156 27.9901 120.463 27.934 120.315 27.6248C120.692 27.6805 121.205 27.6805 121.892 27.6805C121.91 27.5449 121.923 27.415 121.923 27.2909C121.923 26.6479 121.675 26.1038 120.94 26.1038C120.55 26.1038 119.975 26.3573 119.752 26.6974L119.64 26.1347C119.975 26.0234 120.488 25.8565 121.044 25.8565C122.102 25.8565 122.535 26.5366 122.535 27.3095C122.535 28.5527 121.65 29.9996 120.055 29.9996C119.393 29.9996 119.146 29.8326 118.868 29.61L119.06 28.9114Z" fill="#1D1D1F"/>
<path d="M126.912 26.7649C126.962 26.5671 127.017 26.3507 127.017 26.1652C127.017 26.091 127.004 26.0168 126.98 25.9545C127.475 25.9545 127.901 25.8931 128.384 25.8931C129.027 25.8931 129.318 26.3074 129.318 26.7402C129.318 27.5997 128.65 28.1685 127.852 28.1685C127.524 28.1685 127.45 28.1071 127.351 28.0325C127.388 28.0391 127.425 28.0391 127.469 28.0391C128.032 28.0391 128.73 27.6368 128.73 26.7588C128.73 26.462 128.582 26.1404 128.118 26.1404H127.623L126.887 29.0902C126.85 29.251 126.807 29.4488 126.807 29.6343C126.807 29.7333 126.819 29.826 126.85 29.9002H125.997C126.189 29.6838 126.269 29.3376 126.33 29.0902L126.912 26.7649Z" fill="#1D1D1F"/>
<path d="M132.857 28.5404C132.857 27.1739 133.902 25.8565 135.386 25.8565C136.412 25.8565 136.907 26.5304 136.907 27.3095C136.907 28.6826 135.868 29.9996 134.378 29.9996C133.351 29.9996 132.857 29.3194 132.857 28.5404ZM136.295 27.2909C136.295 26.7035 136.017 26.1285 135.33 26.1285C134.186 26.1285 133.463 27.4393 133.463 28.5651C133.463 29.1525 133.741 29.7275 134.427 29.7275C135.578 29.7275 136.295 28.4167 136.295 27.2909Z" fill="#1D1D1F"/>
<path d="M144.516 25.9567C144.318 26.204 144.238 26.4885 144.17 26.7671L143.589 29.092C143.546 29.2775 143.496 29.4877 143.496 29.6547C143.496 29.7417 143.509 29.822 143.533 29.902H142.692C142.884 29.6547 142.964 29.3702 143.032 29.092L143.749 26.204H141.981L141.264 29.092C141.22 29.2775 141.171 29.4877 141.171 29.6547C141.171 29.7417 141.183 29.822 141.208 29.902H140.367C140.559 29.6547 140.639 29.3702 140.707 29.092L141.288 26.7671C141.338 26.5755 141.381 26.3834 141.381 26.1979C141.381 26.1175 141.374 26.0314 141.35 25.9567H144.516Z" fill="#1D1D1F"/>
<path d="M147.97 28.5404C147.97 27.1739 149.015 25.8565 150.499 25.8565C151.526 25.8565 152.02 26.5304 152.02 27.3095C152.02 28.6826 150.981 29.9996 149.492 29.9996C148.465 29.9996 147.97 29.3194 147.97 28.5404ZM151.408 27.2909C151.408 26.7035 151.13 26.1285 150.443 26.1285C149.299 26.1285 148.576 27.4393 148.576 28.5651C148.576 29.1525 148.854 29.7275 149.54 29.7275C150.691 29.7275 151.408 28.4167 151.408 27.2909Z" fill="#1D1D1F"/>
<path d="M156.392 26.7649C156.442 26.5671 156.497 26.3507 156.497 26.1652C156.497 26.091 156.485 26.0168 156.46 25.9545C156.955 25.9545 157.382 25.8931 157.864 25.8931C158.507 25.8931 158.798 26.3074 158.798 26.7402C158.798 27.5997 158.13 28.1685 157.332 28.1685C157.004 28.1685 156.93 28.1071 156.831 28.0325C156.868 28.0391 156.906 28.0391 156.949 28.0391C157.512 28.0391 158.21 27.6368 158.21 26.7588C158.21 26.462 158.062 26.1404 157.598 26.1404H157.103L156.367 29.0902C156.33 29.251 156.287 29.4488 156.287 29.6343C156.287 29.7333 156.3 29.826 156.33 29.9002H155.477C155.669 29.6838 155.749 29.3376 155.811 29.0902L156.392 26.7649Z" fill="#1D1D1F"/>
<path d="M162.955 29.9006C163.141 29.6904 163.222 29.3689 163.289 29.0906L163.994 26.2645H163.11C162.968 26.2645 162.819 26.283 162.64 26.4005L162.875 25.9553H165.985C165.812 26.2212 165.423 26.2645 165.169 26.2645H164.551L163.846 29.0906C163.797 29.2823 163.747 29.4987 163.747 29.678C163.747 29.7584 163.76 29.8326 163.784 29.9006H162.955Z" fill="#1D1D1F"/>
</svg>
