<svg width="88" height="47" viewBox="0 0 88 47" fill="none" xmlns="http://www.w3.org/2000/svg">
<path fill-rule="evenodd" clip-rule="evenodd" d="M42.0593 0.13607C45.3504 -0.33408 48.7981 0.427114 51.5966 2.21816C54.619 4.07637 56.8578 7.16592 57.731 10.5913C58.4921 13.6361 58.2011 16.9495 56.8354 19.7704C55.2907 23.0614 52.3354 25.6585 48.8653 26.8002C45.6638 27.8749 42.0817 27.7405 38.9698 26.442C36.1712 25.3002 33.7757 23.2405 32.231 20.6435C30.6862 18.0913 30.0145 15.0017 30.3727 12.0241C30.7757 8.17338 32.9474 4.5689 36.1489 2.39726C37.8951 1.2107 39.9324 0.382338 42.0593 0.13607ZM43.4921 3.24801C41.7459 3.71816 39.8877 4.52413 38.9921 6.18085C38.1862 7.7704 38.231 9.71816 38.9698 11.3301C38.3205 10.9495 37.6041 10.5465 37.2683 9.8301C36.7981 8.8898 37.0668 7.79279 37.2011 6.80771C35.2086 8.28532 35.0295 11.2853 36.1712 13.345C37.1115 15.0465 38.6787 16.2555 40.1563 17.4644C41.3653 18.4943 42.4847 19.9943 42.2608 21.6734C42.1489 22.8376 41.2981 23.8002 40.2011 24.1585C41.7235 24.5167 43.425 24.2256 44.6563 23.2405C46.1787 21.9868 46.7832 19.6137 45.7757 17.8674C44.7683 16.0988 43.313 14.6435 42.2384 12.9197C41.2981 11.3973 41.0742 9.2704 42.1936 7.7704C42.1713 8.7107 42.216 9.67338 42.5742 10.5465C43.022 12.0241 44.231 13.0764 45.3056 14.1062C46.8727 15.4495 48.7086 16.8823 49.0892 19.054C49.425 20.4196 48.6862 21.6958 47.8578 22.7256C50.3429 22.2779 52.8727 20.3301 52.9623 17.6211C53.119 15.9197 52.2459 14.3525 51.2832 13.0316C50.6116 12.1137 49.7832 11.1958 49.716 9.98681C49.6489 9.2704 50.0518 8.66592 50.3429 8.06144C49.3578 8.12861 48.4847 8.80025 48.216 9.76293C47.9026 10.5913 48.1489 11.4644 48.2832 12.2928C46.5817 11.1734 45.6638 9.11368 45.7757 7.09876C45.7757 5.35249 46.9623 3.80771 48.4623 3.00174C46.8056 2.75547 45.1041 2.91219 43.4921 3.24801Z" fill="#404040"/>
<path fill-rule="evenodd" clip-rule="evenodd" d="M79.2235 32.5763C82.2906 31.8823 85.6041 33.6957 86.8802 36.539C87.8205 38.5987 87.7757 41.1062 86.6563 43.0763C85.6489 44.9345 83.7011 46.3226 81.5966 46.5465C78.7533 46.9271 75.8429 45.3151 74.6115 42.7405C73.1115 39.8525 73.828 35.9793 76.3802 33.9196C77.1862 33.2704 78.1712 32.7778 79.2235 32.5763ZM79.3802 34.054C78.0369 34.345 77.119 35.554 76.8503 36.8525C76.425 39.0017 76.9175 41.2853 77.9921 43.1883C78.619 44.3077 79.8056 45.1808 81.1265 45.0913C82.2906 45.0241 83.4772 44.4196 84.0145 43.345C84.8205 41.8898 84.7086 40.1435 84.3951 38.5763C84.0369 37.0763 83.4324 35.4868 82.1563 34.5241C81.3951 33.9196 80.3205 33.7629 79.3802 34.054ZM13.7608 32.6659C18.91 32.6883 24.0369 32.6211 29.1862 32.7107C29.1862 33.0689 29.1862 33.4495 29.1638 33.8077C28.7832 33.8972 28.313 33.8525 28.022 34.1659C27.619 34.5913 27.5742 35.2405 27.5742 35.8002C27.5966 38.2629 27.5742 40.7256 27.5742 43.1883C27.5966 43.8151 27.619 44.5316 28.1115 44.9793C28.425 45.1808 28.828 45.1808 29.1862 45.2928C29.1862 45.651 29.1862 46.0092 29.1638 46.3674C27.0593 46.3674 24.9548 46.3898 22.8503 46.3674C22.828 46.0092 22.828 45.6734 22.8056 45.3151C23.119 45.248 23.4324 45.1808 23.7683 45.1137C24.1265 44.7778 24.4399 44.3525 24.4399 43.8599C24.4623 41.1734 24.4399 38.4868 24.4623 35.8002C24.5071 35.2853 24.2832 34.8375 24.0817 34.3898C23.0071 33.9868 21.8205 34.2331 20.7011 34.1659C20.119 34.2107 19.4026 34.0316 18.9324 34.4793C18.5294 34.8823 18.5294 35.4868 18.5294 36.0017C18.5294 38.4644 18.5294 40.9495 18.5294 43.4122C18.5294 43.8823 18.5518 44.3972 18.8877 44.7778C19.1563 45.2256 19.716 45.1808 20.1414 45.2928C20.1414 45.651 20.119 46.0092 20.0966 46.3674C17.9921 46.3674 15.8877 46.3898 13.7832 46.345C13.7832 45.9868 13.7832 45.6286 13.7832 45.2704C14.0966 45.2032 14.4324 45.136 14.7683 45.0913C15.4623 44.4196 15.3951 43.3898 15.4175 42.5166C15.4175 40.3674 15.4175 38.1957 15.4175 36.0241C15.3727 35.3972 15.4175 34.6584 14.9697 34.1883C14.6787 33.8525 14.2086 33.8972 13.8056 33.7853C13.7608 33.4271 13.7608 33.0465 13.7608 32.6659ZM33.619 32.7107C35.4324 32.6211 37.2683 32.6435 39.0817 32.7107C40.6041 36.6286 42.0817 40.5689 43.6489 44.4644C43.8056 45.0241 44.3429 45.248 44.8578 45.3375C44.8354 45.6957 44.813 46.054 44.7683 46.4122C42.7309 46.3898 40.6712 46.4122 38.6339 46.3898C38.6115 46.0539 38.5891 45.6957 38.5668 45.3599C39.0817 45.2032 39.7086 45.1584 40.022 44.6659C40.4026 43.748 39.7533 42.8748 39.5071 42.0241C37.8503 42.0241 36.1936 42.0465 34.5593 42.0241C34.3578 42.8748 33.7086 43.7256 34.0444 44.5987C34.2906 45.248 35.0742 45.1808 35.6339 45.2928C35.6115 45.6734 35.5891 46.0316 35.5668 46.4122C33.9324 46.3898 32.3205 46.4122 30.6862 46.3898C30.6638 46.0316 30.6414 45.6957 30.619 45.3375C30.9324 45.248 31.2235 45.1584 31.5369 45.0689C32.0071 44.2853 32.2533 43.4122 32.5891 42.5614C33.3951 40.3898 34.2011 38.1957 35.0071 36.0241C35.1862 35.5092 35.4324 34.8823 35.0742 34.3898C34.7384 33.9196 34.1339 33.8972 33.619 33.8077C33.619 33.4495 33.619 33.0689 33.619 32.7107ZM34.9847 40.7928C36.328 40.7928 37.6712 40.7928 39.0145 40.7928C38.3653 38.9122 37.6265 37.0763 36.9772 35.1957C36.2832 37.0316 35.6115 38.9122 34.9847 40.7928ZM43.5593 36.5614C43.9847 36.651 44.4324 36.7405 44.8578 36.8301C45.1489 36.0241 45.4399 35.1286 46.1787 34.6137C46.8951 34.0763 47.7906 33.9644 48.6638 33.8972C48.6862 36.9196 48.6638 39.9196 48.6862 42.942C48.6638 43.5689 48.7309 44.2853 48.3056 44.8002C48.0369 45.2032 47.4772 45.1808 47.0742 45.3151C47.1414 45.651 46.9175 46.1435 47.2757 46.3674C49.3354 46.3898 51.3951 46.3898 53.4548 46.3674C53.4548 46.0092 53.4548 45.651 53.4772 45.3151C53.0518 45.2032 52.5369 45.2032 52.2459 44.8226C51.8205 44.2181 51.8429 43.4345 51.8429 42.7405C51.8653 39.8077 51.8205 36.8525 51.8653 33.9196C52.716 34.0092 53.6563 34.0763 54.3503 34.636C55.0891 35.1734 55.3354 36.0689 55.6489 36.8748C56.0518 36.7853 56.4772 36.6957 56.9026 36.6062C56.7011 35.2405 56.3205 33.8972 55.9623 32.5763C53.9921 32.7778 52.022 32.6659 50.0742 32.6883C48.2608 32.6659 46.425 32.7778 44.6115 32.5763C44.1638 33.8748 43.828 35.2181 43.5593 36.5614ZM57.8653 32.6883C57.8653 33.0689 57.8653 33.4495 57.91 33.8301C58.6936 33.7629 59.4324 34.2778 59.4324 35.1062C59.4996 38.8674 59.41 42.6286 59.4772 46.3674C60.0369 46.3674 60.619 46.3674 61.1787 46.3674C63.5966 43.3002 65.8354 40.1211 68.2757 37.0763C68.2981 39.1137 68.2757 41.1286 68.2981 43.1659C68.2981 43.7704 68.3205 44.4644 67.828 44.8898C67.5369 45.2256 67.0891 45.2032 66.7086 45.248C66.7086 45.6286 66.7086 45.9868 66.7086 46.3674C68.813 46.3898 70.8951 46.345 72.9996 46.3898C73.0444 46.0092 73.0668 45.651 73.0444 45.2704C72.6638 45.1808 72.3056 45.1136 71.925 45.0241C71.5891 44.4644 71.41 43.8375 71.4324 43.1883C71.4548 40.5017 71.3877 37.8151 71.4772 35.1286C71.4996 34.3002 72.216 33.7629 72.9996 33.8077C73.0444 33.4719 73.0892 33.136 73.1115 32.7778C71.8578 32.5092 70.5593 32.6883 69.2832 32.6883C67.0668 35.8002 64.7384 38.8674 62.522 42.0017C62.5444 39.6957 62.4324 37.3898 62.5668 35.1062C62.5668 34.2554 63.3727 33.7853 64.1339 33.8525C64.1339 33.4719 64.1339 33.1137 64.1339 32.7331C62.0742 32.6211 59.9697 32.6435 57.8653 32.6883ZM0.865269 35.442C0.865269 35.2405 0.887657 35.039 0.887657 34.8375C2.07422 34.8375 3.2384 34.8375 4.42497 34.8375C4.60408 35.4196 4.06676 35.5763 3.66378 35.8002C3.55184 36.9196 3.64139 38.039 3.619 39.1584C3.64139 39.8525 3.48467 40.5913 3.86527 41.2181C4.33542 41.2181 4.51452 41.4868 4.44736 41.9345C3.26079 41.9569 2.07422 41.9345 0.887657 41.9345C0.887657 41.7331 0.865269 41.5092 0.865269 41.3077C1.02199 41.2853 1.33542 41.2181 1.49213 41.1957C1.85034 40.4122 1.69363 39.5166 1.71601 38.6883C1.67124 37.6808 1.82796 36.651 1.58169 35.6435C1.33542 35.5987 1.08915 35.5092 0.865269 35.442ZM5.27572 34.8375C6.4399 34.8375 7.58169 34.8599 8.74587 34.8375C8.76825 34.9942 8.83542 35.3301 8.85781 35.4868C8.56676 35.5092 8.27572 35.5092 7.98467 35.5316C8.00706 37.3674 7.89512 39.2032 8.05184 41.0166C9.12646 41.5316 10.4026 40.7704 10.5593 39.6062C10.828 39.651 11.0966 39.6957 11.3653 39.7405C11.1638 40.4793 10.9847 41.2181 10.828 41.9569C8.94736 41.8898 7.04437 41.9569 5.16378 41.9122C5.14139 41.4644 5.36527 41.1957 5.81303 41.2181C6.19363 40.6584 6.0593 39.9868 6.08169 39.3599C6.03691 38.1286 6.14885 36.8972 6.01452 35.6883C5.74587 35.5987 5.4996 35.5316 5.23094 35.442C5.23094 35.3077 5.27572 34.9942 5.27572 34.8375ZM0.686165 43.2107C4.20109 43.1435 7.71602 43.1659 11.2309 43.1883C11.2086 43.5689 11.2086 43.9495 11.1862 44.3525C7.85034 44.3525 4.49213 44.3525 1.15631 44.3525C0.439896 44.4644 0.753329 43.6137 0.686165 43.2107Z" fill="#1B211F"/>
</svg>
