<svg width="153" height="60" viewBox="0 0 153 60" fill="none" xmlns="http://www.w3.org/2000/svg">
<path d="M61.4913 11.2889L56.3517 44.7791H61.839L65.1383 24.136H68.1872L68.8073 20.0422H65.6726L66.3733 15.1637H69.5965L70.122 11.2897L61.4913 11.2889ZM33.9105 35.7481L35.1016 30.951H37.2808L36.7447 35.7481H41.8431L43.2559 11.2346H36.1973L28.7447 35.7481H33.9105ZM36.1062 26.8713L38.7154 16.3312L38.8302 15.8626L39.2515 14.0548L38.9738 15.9143L38.916 16.3969L37.7388 26.8739L36.1062 26.8713Z" fill="#0BA0E1"/>
<path d="M5.91627 0L0.796875 35.8016H6.2272L7.66799 25.3798L7.83002 24.1492L7.84841 25.8361L7.87119 26.3931L8.34765 35.8016H13.7298L12.2408 22.6918L17.0257 11.2881H11.88L8.6542 20.002L8.53071 20.3287L8.18037 21.5041L8.37568 20.2078L8.42298 19.9267L11.1758 0.000875859L5.91627 0ZM18.6232 11.2881H24.3382L24.6964 21.4419L24.7087 21.7563L24.6815 22.9764L24.9382 21.4314L26.5445 11.2916H30.9369L27.2513 35.8034H22.0969L21.5714 24.5135L21.5591 24.2175L21.5775 22.9773L21.362 24.5486L19.641 35.8042H14.9367L18.6232 11.2881ZM61.4913 11.2889L56.3517 44.7791H61.839L65.1383 24.136H68.1872L68.8073 20.0422H65.6726L66.3733 15.1637H69.5965L70.122 11.2897L61.4913 11.2889ZM33.9105 35.7481L35.1016 30.951H37.2808L36.7447 35.7481H41.8431L43.2559 11.2346H36.1973L28.7447 35.7481H33.9105ZM36.1062 26.8713L38.7154 16.3312L38.8302 15.8626L39.2515 14.0548L38.9738 15.9143L38.916 16.3969L37.7388 26.8739L36.1062 26.8713ZM50.9564 30.6516L54.0219 11.3047H59.3279L56.3701 30.1751C56.1074 31.8716 56.3701 30.1751 56.0951 31.862C55.9966 32.5202 55.8058 33.1612 55.5284 33.7661C55.1688 34.451 54.6307 35.026 53.9711 35.4302C53.234 35.8843 52.4025 36.1633 51.5406 36.2457C50.5525 36.3824 49.553 36.4188 48.5575 36.3543C47.8337 36.3313 47.1161 36.2136 46.423 36.0039C45.9884 35.862 45.5776 35.6553 45.2047 35.3908C44.8472 35.1479 44.548 34.8288 44.3288 34.4563C44.0614 34.0273 43.8943 33.5435 43.8401 33.0409C43.7461 32.4786 43.7434 31.9049 43.8322 31.3417C43.9198 30.641 43.9469 30.5981 44.0249 30.1217C44.0643 29.8913 44.1072 29.7065 44.1335 29.534C45.28 23.3504 45.8405 18.6628 47.0238 11.3021L52.42 11.2854L49.365 30.5789L49.2687 31.1482C49.2364 31.312 49.2296 31.4798 49.2485 31.6457C49.269 31.8317 49.3576 32.0036 49.4973 32.1283C49.5575 32.1924 49.6309 32.2428 49.7123 32.276C49.7938 32.3093 49.8814 32.3246 49.9693 32.3209C50.1257 32.3258 50.2794 32.2797 50.4073 32.1896C50.5232 32.1132 50.6179 32.0086 50.6823 31.8856C50.7834 31.6813 50.8446 31.4595 50.8627 31.2323C50.9144 31.0063 50.9573 30.6489 50.9573 30.6489" fill="#898989"/>
<path d="M87.4395 11.5079L83.7793 36.0083H92.5431L93.1632 31.8558H89.8665L90.9806 24.411H93.8333L94.4534 20.2586H91.6007L92.2874 15.6664H95.5666L96.1876 11.5122L87.4395 11.5079ZM133.631 11.5079L132.043 21.8561L131.334 11.5105H126.429L122.766 36.0109H128.066L130.106 22.3571L130.703 36.0083H135.222L138.884 11.5079H133.631ZM78.3568 20.0072L78.9944 15.8574C79.0514 15.507 78.9944 15.2443 78.4137 15.2373C77.7227 15.2311 77.6631 15.345 77.5799 15.8416L75.2037 31.5405C75.1486 31.9644 75.5147 32.1738 75.851 32.1738C75.9338 32.176 76.0162 32.1616 76.0934 32.1314C76.1706 32.1013 76.2409 32.0559 76.3003 31.9981C76.3596 31.9403 76.4068 31.8712 76.439 31.7949C76.4712 31.7185 76.4878 31.6365 76.4877 31.5537L77.5756 24.5783L83.0865 24.5687L82.0424 31.5537C81.4293 35.1201 79.8826 36.3332 74.4645 36.2316C69.0219 36.1992 69.6385 32.2368 69.6385 32.2368L72.1592 15.3844C72.7592 11.7452 74.5004 11.38 78.2307 11.3598C83.6785 11.2583 84.7392 13.2359 84.3617 16.0571L83.7407 20.0177L78.3568 20.0072ZM94.978 36.0074L98.6566 11.3555H104.157L100.553 36.0074H94.978ZM114.655 36.0074L118.334 11.3555H123.834L120.23 36.0074H114.655ZM109.334 31.7744L112.38 11.3669L106.849 11.3537L103.198 35.9925H112.199L112.842 31.7717L109.334 31.7744ZM146.641 11.3204C142.911 11.3397 141.17 11.7058 140.57 15.345L138.049 32.1992C138.049 32.1992 137.432 36.1615 142.875 36.194H149.817L150.887 28.6379L151.5 24.5214L145.995 24.5319L145.337 28.7509H146.696L146.377 30.8827C146.208 31.89 146.303 32.2517 144.275 32.1273C143.938 32.1273 143.574 31.918 143.627 31.4941L145.999 15.7908C146.086 15.2942 146.142 15.1777 146.832 15.1865C147.415 15.1917 147.47 15.4492 147.412 15.8066L146.775 19.959L152.157 19.9695L152.778 16.0089C153.15 13.193 152.089 11.2188 146.641 11.3204Z" fill="#404040"/>
<path d="M74.884 44.583C74.6018 44.2051 74.2335 43.9 73.8097 43.693C73.386 43.486 72.9189 43.383 72.4474 43.3927C72.1119 43.3952 71.7799 43.4615 71.4691 43.588C71.1383 43.7164 70.8364 43.9094 70.5809 44.1555C70.3062 44.4258 70.0869 44.7471 69.9354 45.1015C69.7581 45.5188 69.6712 45.9689 69.6806 46.4223C69.6536 47.0011 69.8435 47.5692 70.2131 48.0154C70.6261 48.469 71.105 48.8578 71.6337 49.1689C72.0068 49.4089 72.3817 49.6769 72.7645 49.9721C73.148 50.2676 73.4926 50.6105 73.7901 50.9925C74.1009 51.3933 74.3498 51.8385 74.5284 52.3133C74.7229 52.8571 74.8178 53.4315 74.8087 54.0089C74.8272 54.8945 74.6682 55.7749 74.341 56.598C74.061 57.2879 73.6397 57.9117 73.1042 58.4291C72.5687 58.9465 71.9309 59.3461 71.2317 59.6022C70.5246 59.8627 69.7764 59.9942 69.0228 59.9902C68.0763 60.001 67.1383 59.8109 66.2708 59.4323C65.5139 59.1233 64.8466 58.6295 64.3299 57.9959L66.1316 55.8193C66.47 56.2701 66.9028 56.6414 67.3998 56.9072C67.8968 57.1818 68.4558 57.3247 69.0237 57.3223C69.4067 57.3445 69.7901 57.284 70.1476 57.1449C70.5052 57.0057 70.8286 56.7912 71.0959 56.5158C71.3631 56.2405 71.5679 55.9109 71.6964 55.5493C71.8249 55.1878 71.874 54.8028 71.8404 54.4206C71.857 53.8175 71.6742 53.2258 71.3202 52.7372C70.8734 52.1839 70.3271 51.719 69.7095 51.3665C69.3294 51.1358 68.9651 50.8801 68.619 50.601C68.2643 50.3163 67.9488 49.9859 67.681 49.6183C67.4013 49.2312 67.1827 48.8034 67.0328 48.35C66.8631 47.8096 66.7821 47.2452 66.7928 46.6789C66.7822 45.8546 66.9324 45.0361 67.2352 44.2694C67.511 43.575 67.9208 42.9417 68.4412 42.4056C68.953 41.8846 69.5662 41.4742 70.2429 41.1995C70.9605 40.9102 71.728 40.765 72.5017 40.7721C73.3445 40.7592 74.1814 40.914 74.9637 41.2275C75.6432 41.4937 76.2453 41.9255 76.7155 42.4835L74.884 44.583ZM86.4033 50.9294C86.4033 52.0476 86.263 53.1613 85.9855 54.2445C85.7322 55.2704 85.3256 56.2522 84.7795 57.1568C84.2931 57.9707 83.64 58.6725 82.8631 59.2159C82.1226 59.7304 81.2405 60.0022 80.3389 59.9937C79.7606 60.023 79.1837 59.9137 78.6562 59.6748C78.1287 59.4359 77.666 59.0744 77.3067 58.6203C76.5437 57.5705 76.1624 56.2914 76.2258 54.9952C76.2243 53.8678 76.3656 52.7448 76.6463 51.6529C76.8984 50.6288 77.3095 49.6506 77.8646 48.7538C78.3564 47.9511 79.0089 47.2587 79.781 46.72C80.5287 46.21 81.4159 45.9435 82.321 45.9572C82.895 45.9261 83.4682 46.032 83.9933 46.266C84.5184 46.5001 84.9803 46.8556 85.3409 47.3034C86.098 48.3556 86.4728 49.635 86.4033 50.9294ZM83.6882 51.0845C83.7154 50.4076 83.5853 49.7336 83.308 49.1155C83.1993 48.8808 83.0228 48.6839 82.8014 48.5502C82.5799 48.4164 82.3236 48.3519 82.0652 48.3649C81.81 48.3708 81.5592 48.4331 81.3309 48.5473C81.1025 48.6614 80.9023 48.8247 80.7444 49.0253C80.3261 49.5125 79.996 50.0688 79.7687 50.6693C79.4953 51.3555 79.29 52.0669 79.1556 52.7933C79.0192 53.4858 78.9471 54.1895 78.9401 54.8953C78.9149 55.5503 79.0452 56.2019 79.3203 56.7968C79.4268 57.0272 79.5996 57.2207 79.8166 57.3525C80.0336 57.4843 80.285 57.5485 80.5386 57.5369C80.7966 57.5332 81.0507 57.4734 81.2832 57.3614C81.5157 57.2495 81.721 57.0882 81.8848 56.8888C82.299 56.4127 82.629 55.8695 82.8605 55.2824C83.1341 54.6093 83.3395 53.9103 83.4736 53.1961C83.6113 52.5005 83.6826 51.7935 83.6882 51.0845ZM90.0837 59.5523H87.3168L90.667 39.9716H93.4084L90.0837 59.5523ZM102.599 56.2879C102.564 56.4631 102.529 56.6987 102.484 56.9983C102.439 57.2978 102.397 57.6114 102.344 57.9389C102.291 58.2665 102.248 58.5748 102.204 58.8717C102.159 59.1686 102.134 59.3972 102.116 59.5496H99.4983C99.5333 59.2869 99.5736 58.9593 99.613 58.5511C99.6524 58.143 99.7129 57.7532 99.7777 57.3731H99.7278C99.4031 58.0827 98.9307 58.7149 98.3422 59.2273C97.7634 59.7317 97.0182 60.0035 96.2506 59.9902C95.8002 60.0033 95.353 59.9109 94.9447 59.7204C94.6032 59.5575 94.3081 59.3114 94.0864 59.0048C93.8679 58.6944 93.7076 58.3469 93.6134 57.9792C93.5096 57.5967 93.4575 57.2019 93.4584 56.8056C93.4643 56.1014 93.5329 55.3991 93.6633 54.707L95.0997 46.4188H97.8517L96.431 54.6816C96.3475 55.091 96.3041 55.5075 96.3014 55.9253C96.2889 56.3212 96.3795 56.7136 96.5642 57.0639C96.6712 57.2272 96.8215 57.3574 96.9983 57.44C97.1751 57.5226 97.3714 57.5543 97.5653 57.5316C97.8916 57.5288 98.2105 57.4344 98.4858 57.2593C98.7944 57.0646 99.0641 56.8142 99.2811 56.5209C99.5326 56.1836 99.7363 55.8131 99.8863 55.42C100.062 54.973 100.189 54.5084 100.266 54.0343L101.557 46.4188H104.319L102.599 56.2879ZM111.857 48.6496H109.7L108.535 55.3814C108.498 55.5481 108.473 55.7169 108.457 55.8868C108.44 56.069 108.432 56.2196 108.432 56.3396C108.414 56.4826 108.429 56.6278 108.477 56.7639C108.524 56.8999 108.603 57.023 108.706 57.1234C108.81 57.2239 108.935 57.2989 109.073 57.3425C109.21 57.3861 109.356 57.3972 109.498 57.3749C109.652 57.3738 109.805 57.357 109.956 57.3249C110.111 57.2942 110.263 57.2508 110.411 57.1953L110.081 59.4489C109.839 59.5586 109.583 59.6369 109.321 59.6819C109.036 59.7323 108.748 59.7581 108.458 59.759C108.083 59.7867 107.706 59.7378 107.351 59.6152C106.995 59.4927 106.668 59.299 106.39 59.046C106.147 58.7789 105.96 58.4661 105.84 58.1259C105.719 57.7858 105.668 57.425 105.689 57.0648C105.694 56.709 105.728 56.3543 105.791 56.0042L107.06 48.6469H105.334L105.717 46.3934H107.415L108 42.9775H110.665L110.08 46.3934H112.264L111.857 48.6496ZM114.318 59.5523H111.578L113.837 46.396H116.577L114.318 59.5523ZM117.39 42.3031C117.405 42.8178 117.224 43.3189 116.882 43.7045C116.726 43.8874 116.532 44.0334 116.312 44.132C116.093 44.2306 115.855 44.2793 115.614 44.2747C115.41 44.2876 115.205 44.2535 115.016 44.175C114.827 44.0965 114.659 43.9757 114.524 43.8218C114.272 43.53 114.136 43.1562 114.141 42.7708C114.138 42.2628 114.318 41.7708 114.649 41.3852C114.803 41.1904 115 41.0337 115.225 40.9274C115.45 40.821 115.696 40.7679 115.944 40.7721C116.142 40.761 116.341 40.7935 116.525 40.8674C116.709 40.9412 116.875 41.0546 117.01 41.1995C117.272 41.5063 117.407 41.9004 117.39 42.3031ZM127.617 50.9294C127.617 52.0476 127.476 53.1613 127.199 54.2445C126.945 55.2705 126.539 56.2528 125.995 57.1585C125.508 57.9724 124.855 58.6742 124.078 59.2177C123.338 59.7318 122.456 60.0036 121.554 59.9954C120.976 60.0246 120.398 59.9152 119.87 59.6763C119.343 59.4374 118.879 59.076 118.519 58.6221C117.758 57.5715 117.378 56.2928 117.441 54.9969C117.44 53.8695 117.581 52.7465 117.862 51.6546C118.113 50.6307 118.523 49.6525 119.077 48.7555C119.571 47.954 120.223 47.2618 120.994 46.7218C121.742 46.2125 122.629 45.9461 123.534 45.9589C124.108 45.9281 124.681 46.034 125.206 46.2681C125.731 46.5021 126.193 46.8576 126.554 47.3051C127.311 48.3568 127.686 49.6355 127.617 50.9294ZM124.902 51.0845C124.93 50.4073 124.799 49.7329 124.519 49.1155C124.411 48.8804 124.234 48.6831 124.013 48.5493C123.791 48.4154 123.535 48.3512 123.276 48.3649C123.021 48.3709 122.771 48.4332 122.543 48.5474C122.315 48.6616 122.115 48.8248 121.958 49.0253C121.54 49.5129 121.209 50.0691 120.98 50.6693C120.458 52.0172 120.179 53.4468 120.156 54.8918C120.13 55.5469 120.26 56.1988 120.536 56.7933C120.643 57.0237 120.816 57.2172 121.033 57.349C121.25 57.4808 121.501 57.545 121.755 57.5334C122.012 57.53 122.266 57.4701 122.498 57.3582C122.73 57.2462 122.935 57.0848 123.098 56.8853C123.514 56.41 123.845 55.8666 124.077 55.2789C124.35 54.606 124.553 53.9069 124.684 53.1926C124.824 52.4984 124.896 51.7925 124.902 51.0845ZM139.34 49.14C139.337 49.4742 139.312 49.8077 139.265 50.1385C139.215 50.509 139.157 50.8839 139.09 51.264L137.706 59.5523H134.952L136.375 51.2719C136.408 51.0468 136.438 50.8287 136.463 50.6211C136.488 50.4145 136.501 50.2065 136.501 49.9984C136.512 49.6098 136.422 49.2251 136.238 48.8825C136.13 48.7193 135.979 48.5892 135.802 48.5066C135.625 48.424 135.428 48.3923 135.234 48.4148C134.892 48.4289 134.558 48.5262 134.262 48.6984C133.965 48.8705 133.715 49.1123 133.533 49.4028C133.005 50.1518 132.658 51.0132 132.52 51.9191L131.224 59.5514H128.484L130.182 49.6848C130.2 49.5097 130.235 49.2644 130.285 48.9465C130.335 48.6285 130.387 48.2983 130.437 47.9611L130.577 47.031C130.62 46.7489 130.647 46.5335 130.665 46.3951H133.279C133.244 46.6377 133.204 46.9653 133.151 47.3778C133.099 47.7903 133.052 48.1731 132.999 48.5164H133.052C133.376 47.8087 133.858 47.1842 134.46 46.6903C135.047 46.2026 135.789 45.9408 136.552 45.9519C136.995 45.9385 137.435 46.0319 137.835 46.2243C138.175 46.396 138.472 46.6435 138.703 46.9478C138.93 47.2543 139.097 47.6015 139.193 47.9708C139.292 48.3526 139.342 48.7456 139.34 49.14ZM147.893 49.0376C147.662 48.749 147.366 48.5186 147.03 48.3649C146.663 48.2038 146.265 48.1243 145.865 48.1319C145.388 48.1258 144.927 48.2962 144.569 48.6101C144.317 48.8657 144.141 49.1863 144.061 49.5362C143.98 49.886 143.999 50.2513 144.114 50.5913C144.181 50.7628 144.279 50.9205 144.404 51.0564C144.546 51.2079 144.708 51.3394 144.886 51.4471C145.081 51.567 145.314 51.6976 145.587 51.8351C146.258 52.2013 146.863 52.6784 147.375 53.2461C147.884 53.868 148.142 54.6578 148.099 55.4602C148.117 56.1639 147.979 56.8628 147.693 57.5062C147.445 58.0484 147.081 58.5299 146.627 58.9173C146.193 59.2859 145.688 59.5632 145.144 59.7327C144.598 59.9059 144.028 59.9946 143.455 59.9954C142.686 60.0009 141.924 59.8423 141.221 59.5304C140.588 59.2634 140.03 58.845 139.597 58.312L141.273 56.4981C141.535 56.835 141.852 57.1245 142.211 57.3539C142.623 57.607 143.099 57.7332 143.582 57.7165C144.07 57.724 144.542 57.543 144.9 57.2111C145.09 57.0307 145.239 56.811 145.335 56.5673C145.432 56.3235 145.473 56.0617 145.458 55.8001C145.466 55.563 145.425 55.3269 145.338 55.1063C145.251 54.8856 145.12 54.685 144.953 54.5169C144.577 54.1562 144.148 53.8549 143.682 53.6236C143.059 53.3286 142.509 52.8997 142.071 52.3676C141.617 51.7709 141.387 51.0331 141.423 50.2839C141.408 49.6316 141.543 48.9846 141.818 48.3929C142.066 47.8732 142.425 47.4138 142.869 47.0467C143.308 46.6834 143.811 46.4067 144.353 46.2313C144.905 46.0488 145.484 45.9568 146.066 45.9589C146.725 45.9469 147.38 46.066 147.993 46.3093C148.494 46.5055 148.951 46.7997 149.336 47.1746L147.893 49.0376Z" fill="#404040"/>
</svg>
