<svg width="102" height="60" viewBox="0 0 102 60" fill="none" xmlns="http://www.w3.org/2000/svg">
<path fill-rule="evenodd" clip-rule="evenodd" d="M2.85822 52.6082L21.4418 52.6185C31.5965 58.1223 41.5319 59.9899 50.4749 60C64.3089 59.9301 75.8672 55.3736 82.4807 52.5738L99.2716 52.6001L101.251 52.633L101.192 50.6288L101.21 19.0269L101.151 17.0227L99.1467 17.0822L81.5653 17.0433L80.6873 16.6088C75.1863 14.141 69.6102 11.9514 63.7625 10.7818C62.9213 5.38796 57.702 0.0141366 51.3443 0C50.4349 0.0545867 49.6184 0.134078 48.6599 0.374153C42.1827 1.91896 39.3144 6.3188 38.7031 10.8265C32.4432 11.9326 26.3985 14.0896 20.9287 16.6995L20.0376 17.0573L3.15452 17.0057L1.15033 17.0652L1.1418 18.9516L0.819812 50.5713L0.786377 52.5506L2.85822 52.6082Z" fill="white"/>
<path fill-rule="evenodd" clip-rule="evenodd" d="M82.119 50.5888L99.3054 50.6215L99.1137 19.0622L81.1109 19.1085L79.888 18.4831C74.4108 15.9221 68.8359 13.7321 62.8444 12.7233C62.4737 12.6239 62.1949 12.5492 61.8929 12.5673C62.1037 6.9585 55.9454 0.636894 49.048 2.26717C43.0843 3.75032 40.6796 8.27439 40.446 12.486C40.1429 12.5038 39.8646 12.4292 39.5798 12.7508C33.2759 13.647 27.3243 15.8284 21.7368 18.5058L20.3999 19.0424L3.21404 19.0099L2.79911 50.6047L21.9636 50.671C47.6244 64.7029 71.6799 55.0468 82.119 50.5888Z" fill="#404040"/>
<path fill-rule="evenodd" clip-rule="evenodd" d="M50.6588 55.9743L44.5863 55.6393C44.2653 55.3546 43.6094 55.5762 42.9604 55.4023C41.9153 55.2219 40.7529 55.1096 39.5226 54.879C38.7807 54.6802 38.1064 54.5986 37.365 54.3999C37.2472 54.468 37.2223 54.5609 37.1051 54.6286C36.9014 54.2757 36.5302 54.1762 36.1346 54.1699C35.2322 53.8285 34.3725 53.6977 33.4701 53.3563C32.0543 53.0766 30.6699 52.3077 29.3216 52.1457C29.0255 51.7681 28.469 51.6189 28.073 51.6119C27.3623 50.9245 26.5897 51.2144 26.0644 50.5768C25.5759 50.5455 25.1868 50.143 24.6053 50.0868C23.6846 49.4422 22.6649 49.169 21.744 48.5249C18.8806 48.4538 15.9677 48.5675 13.1044 48.4959C10.7295 48.4561 8.423 48.533 6.25822 48.4504C5.65238 48.4873 5.07105 48.4306 4.58251 48.3993C4.19345 47.9968 4.36041 47.7433 4.13179 47.4834C4.56559 46.6058 4.1836 45.8073 4.31407 44.9486C4.29569 44.6454 4.3455 44.4595 4.32752 44.157C4.54414 43.7182 4.06906 42.8953 4.49648 42.4133C4.33605 42.2707 4.3608 42.1783 4.41061 41.9924C4.3744 41.3862 4.3375 40.7803 4.39424 40.199C4.32675 40.0813 4.25871 39.9634 4.30837 39.7781C4.49371 39.8277 4.42622 39.7101 4.26508 39.5678C4.40784 39.4069 4.36456 39.1966 4.22902 38.9611C4.37163 38.8006 4.32835 38.5904 4.37816 38.4045C4.50239 37.9409 4.13808 37.4459 4.28721 36.8894C4.28721 36.8894 4.42927 36.7288 4.45418 36.6358C4.3185 36.4008 4.36831 36.2149 4.23263 35.9799C4.61039 35.6833 4.38176 35.4234 4.43142 35.238C4.41305 34.9348 4.27737 34.6998 4.51237 34.5641C4.37191 33.2338 4.65166 31.818 4.35061 30.3456C4.33209 30.043 4.33916 29.647 4.43849 29.2763C4.25315 29.2267 4.20986 29.0164 4.47032 28.7879C4.17365 28.4102 4.62583 27.8358 4.35407 27.3651C4.54634 27.0193 4.27458 26.5486 4.49176 26.1099C4.30641 26.0602 4.23837 25.9424 4.26313 25.85C4.38043 25.7818 4.4301 25.5964 4.2702 25.454C4.43717 25.2004 4.41934 24.8974 4.469 24.712C4.28366 24.6624 4.09777 24.6126 3.84424 24.4456C4.03665 24.0993 4.17941 23.9383 4.46393 23.6178C4.33478 22.9867 4.60161 22.3626 4.35461 21.7995C4.61467 21.5703 4.47898 21.3353 4.46101 21.0328C5.21638 20.4401 5.90863 20.8242 6.69966 20.8375C8.21478 20.7466 9.82284 20.6805 11.3811 20.8004C11.4309 20.6145 11.641 20.5718 11.8016 20.7138C12.9893 20.7338 14.0841 20.7289 15.3635 20.774C16.18 20.6945 17.0143 20.9181 17.788 20.6285C18.295 20.963 18.9751 20.6489 19.4387 20.7731C19.6489 20.7298 19.7419 20.7547 19.8845 20.5943C20.0196 20.8291 20.2552 20.6936 20.4405 20.7433C20.3972 20.533 20.5826 20.5827 20.5329 20.768C21.4602 21.0165 22.3581 20.2633 23.1314 19.9735C23.5517 19.8875 23.9544 19.4979 24.2816 19.3875C24.3065 19.2946 24.3313 19.2022 24.4242 19.2271C24.5599 19.4621 24.6096 19.2767 24.6841 18.9985C25.0306 19.1903 25.3158 18.8694 25.6183 18.8515C25.4324 18.8017 25.4822 18.6158 25.6929 18.5732C25.9642 19.0432 26.6083 18.1223 26.9795 18.2218C26.8937 17.8009 27.3999 18.1358 27.7285 18.0246C27.7101 17.7214 27.7782 17.8392 27.9884 17.796C27.896 17.7712 27.9706 17.4929 28.1376 17.2394C28.2981 17.3815 28.2236 17.6597 28.2483 17.5673C28.298 17.382 28.4586 17.5241 28.6687 17.4813C28.8793 17.4387 28.8113 17.3209 28.9788 17.0675C29.0896 17.3954 29.2069 17.3273 29.4175 17.2847C29.3317 16.8638 30.0238 17.2485 30.3335 16.834C30.7538 16.7479 31.2175 16.8722 31.3666 16.3156C32.4116 16.4966 33.4199 16.0706 34.453 15.5522C35.1273 15.6339 35.8077 15.3187 36.4634 15.0977C36.6488 15.1473 36.8347 15.1971 36.9767 15.0366C37.5582 15.0927 38.2385 14.7781 38.7767 14.624C39.1727 14.6311 39.4078 14.4949 39.6861 14.5695C39.6428 14.3592 39.6926 14.1733 39.9027 14.1306C39.9887 14.5509 40.2237 14.4153 40.6879 14.5396C40.8236 14.7746 41.1699 14.9671 41.1634 15.3632C41.0208 15.5236 41.0208 15.5236 41.1814 15.6657C41.1068 15.944 41.4775 16.0433 41.378 16.4145C41.471 16.4394 41.6316 16.5815 41.4646 16.835C41.7671 16.817 41.7855 17.1202 41.7109 17.3985C42.1745 17.5228 42.0936 18.1966 42.5323 18.4138C42.4579 18.6915 42.7362 18.7661 42.7546 19.0693C42.9647 19.0266 43.0328 19.1439 42.9583 19.4222C43.3786 19.3361 43.7493 19.4355 43.7429 19.8311C43.2545 19.7992 43.9965 19.998 44.0143 20.3011C44.385 20.4004 44.5147 21.0317 45.1636 21.2056C45.7138 21.7503 46.4303 22.0419 47.2155 22.4509C48.2784 22.9344 49.3235 23.1148 50.4431 23.0175C50.7895 23.2094 51.1602 23.3087 51.4449 22.9877C51.7416 23.3654 52.5397 22.9827 53.0281 23.0146C54.1046 22.7059 55.3169 22.634 56.4986 21.5589C56.9883 21.5905 57.3473 20.9918 57.8855 20.8377C58.3124 20.3556 58.455 20.1951 58.9495 19.8301C58.9559 19.4345 59.3773 19.3488 59.7124 18.842C59.8117 18.4713 60.1207 18.0572 60.4557 17.5505C60.5054 17.3651 60.741 17.2296 60.6296 16.9015C61.1429 16.8404 60.9712 15.9986 61.2553 15.6774C61.305 15.4921 61.0272 15.4177 61.1949 15.1637C61.4726 15.2382 61.3872 14.818 61.5536 14.5643C64.1571 14.864 66.7292 15.6528 69.2321 16.3235L70.9942 16.7956C71.0937 16.4244 71.2731 16.8703 71.619 17.0621C71.4589 16.9201 71.4158 16.7094 71.3725 16.4991C71.3725 16.4991 71.0937 16.4244 71.354 16.1965L71.7929 16.4131C71.8113 16.7163 71.8545 16.9265 71.687 17.1799C72.2933 17.1437 72.9111 17.8056 73.5421 17.677C74.049 18.0115 74.6483 18.3707 75.1616 18.3096C75.804 18.8796 76.6644 19.0105 77.3554 19.3949C77.7521 19.4016 78.0049 19.5689 78.2335 19.8288C78.6291 19.8352 79.0922 19.9593 79.2715 20.4052C79.5071 20.2697 79.7599 20.4371 79.9707 20.3939C79.9643 20.7895 80.2172 20.9569 80.3414 20.4933C80.4031 21.0067 80.8234 20.9207 81.1946 21.0202C82.7094 20.9285 84.2931 20.9556 85.7838 20.9577C86.2475 21.082 86.6673 20.9958 87.1558 21.0271C87.1125 20.8168 87.1623 20.6309 87.373 20.5884C87.6378 21.4545 88.6962 20.8439 89.3452 21.0178C90.1369 21.0307 90.835 21.0191 91.6266 21.0325C91.6762 20.8472 91.8188 20.6868 91.9367 20.6187C92.1473 20.5761 92.2825 20.811 92.4251 20.6505C92.5364 20.9786 92.7223 21.0285 92.864 20.8672C93.3956 21.1093 94.2801 21.1476 94.9605 20.8324C95.0287 20.9497 95.0968 21.0676 95.2643 20.8142C95.6534 21.2167 96.4266 20.927 96.8902 21.0512C97.2858 21.0576 97.4651 21.5035 97.5759 21.8315C97.4333 21.9919 97.2906 22.1529 97.6365 22.3446C97.4193 22.7833 97.4377 23.0865 97.4313 23.4821C97.6669 23.3466 97.6841 23.6495 97.4248 23.8783L97.3611 24.855C97.8009 25.0725 97.2305 25.7143 97.385 26.2531C97.5568 27.0944 97.3084 28.0216 97.5987 28.795C97.3133 29.1164 97.5414 29.3762 97.3999 29.5369C97.6961 29.914 97.1514 30.4642 97.5903 30.6808C97.6323 30.8913 97.4661 31.1444 97.4162 31.3303C97.5761 31.4728 97.5265 31.6581 97.3839 31.8185C97.5698 31.8684 97.52 32.0543 97.5383 32.3574C97.2899 33.2847 97.345 34.1943 97.5596 35.2456C97.5349 35.338 97.578 35.5488 97.6213 35.7591C97.2843 37.756 97.5291 39.8099 97.4029 41.7637C97.4213 42.0669 97.4645 42.2772 97.7185 42.4448C97.5757 42.6058 97.4331 42.7663 97.6872 42.9334C97.123 43.1801 97.5057 43.9782 97.3567 44.5342C97.5297 45.3757 97.2563 46.3959 97.5704 47.0761C97.4028 47.33 97.3531 47.5153 97.5141 47.6581C97.2536 47.8866 97.4568 48.2393 97.2905 48.4924C96.4919 48.8749 95.4291 48.3909 94.791 48.9155C94.5446 48.3526 93.7215 48.8282 93.165 48.6791C91.4893 48.6279 89.789 48.6687 87.9949 48.6854C87.9949 48.6854 87.9701 48.7778 87.8772 48.7529C87.5312 48.5612 87.1114 48.6474 86.7149 48.6402C86.9008 48.69 86.758 48.851 86.6651 48.826C86.3442 48.5408 85.7135 48.6707 85.3179 48.6643C84.6187 48.6756 83.9201 48.6871 83.2462 48.6061C83.0787 48.8595 82.3864 48.4754 81.9413 48.6538C80.7109 48.4237 79.3249 49.1458 78.173 49.7313C78.0315 49.8921 77.7277 49.9103 77.5602 50.1637C77.2825 50.0893 76.9291 50.2928 76.6443 50.6144C75.711 50.7622 74.7699 51.3047 73.8789 51.6624C72.5675 52.1062 71.3489 52.5755 70.1538 52.9502C68.3972 53.573 66.5973 53.9855 64.8218 54.3044C64.7224 54.6756 64.2338 54.6443 63.8637 54.5452C63.5785 54.866 63.467 54.5385 63.1829 54.8597C62.836 54.6671 62.3664 54.9392 61.9448 55.0254C62.5274 55.0819 62.093 55.9594 61.7287 55.4644C61.7784 55.2791 61.8282 55.0932 61.6671 54.951C60.6161 55.1663 59.5139 55.5665 58.4693 55.3863C58.2089 55.6147 57.6528 55.4658 57.3005 55.6696C56.3664 55.8166 55.1359 55.5865 54.4303 55.9934C53.9234 55.6589 52.9156 56.0851 52.2666 55.9112C51.6864 55.8524 51.2153 56.1235 50.6588 55.9743Z" fill="white"/>
<path fill-rule="evenodd" clip-rule="evenodd" d="M48.521 54.3081C50.7353 54.2058 52.9922 54.3142 55.2316 54.1185C63.1353 53.5525 71.1095 51.6142 79.0983 47.3933C80.9727 46.7031 82.9201 47.2249 84.7633 47.0226C85.227 47.1469 85.7408 47.0859 86.2293 47.1172C87.6943 47.2114 89.2098 47.1212 90.7008 47.1222C92.0057 47.0746 93.3095 47.0266 94.5907 47.0717C95.011 46.9856 95.2888 47.0601 95.592 47.0417L95.813 22.8493C94.3719 22.6618 92.9243 22.8704 91.5772 22.7081C87.4333 22.5916 83.4438 23.014 79.4005 22.5265C73.6028 19.6809 67.984 17.2811 62.2391 16.8347C62.2143 16.9271 62.1225 16.9024 62.1225 16.9024C62.0901 17.3907 61.6632 17.8728 61.539 18.3365C61.4703 18.4098 61.4207 18.499 61.3947 18.5961C61.3687 18.6932 61.367 18.7952 61.3899 18.893C60.5103 19.9495 60.1261 20.6417 59.2281 21.3949C54.0277 25.9651 48.883 25.8786 43.7046 22.2046C43.1295 21.7528 42.3514 20.9478 41.9878 20.4525C41.3701 19.79 40.7341 18.8244 40.3768 17.9335C40.0807 17.5559 40.112 17.0674 39.63 16.64C34.7496 17.4195 29.7639 18.9661 24.9496 21.3538C23.8732 21.6619 22.9505 22.5075 21.8308 22.6054C20.0125 22.7147 18.1509 22.6138 16.2647 22.6047C14.8667 22.628 13.5625 22.6752 12.1893 22.6061C11.1195 22.5181 9.97544 22.7091 8.90518 22.6204C7.85369 22.8355 6.92643 22.5871 5.89985 22.7093C5.93606 23.3155 5.99717 23.8288 5.94113 24.4098C5.93191 31.8622 5.99104 39.4314 5.98237 46.884C8.51784 47.0659 11.1276 46.9706 13.6203 46.9424C16.5944 47.3419 19.6566 46.6711 22.581 47.2561C31.3069 51.7828 39.8209 53.7659 48.521 54.3081Z" fill="#404040"/>
<path fill-rule="evenodd" clip-rule="evenodd" d="M53.012 22.7114C53.2903 22.786 53.6183 22.6752 53.9462 22.5644C54.231 22.2429 54.0273 21.89 54.4049 21.5939C54.8258 21.508 55.2705 21.3289 55.7169 21.1502C55.9513 21.0144 56.348 21.0211 56.5652 20.5824C56.5899 20.49 56.6829 20.5149 56.6829 20.5149C57.0103 20.4039 57.2956 20.0825 57.5548 19.8543C57.7905 19.7182 58.1439 19.5146 58.4032 19.2864C58.8559 18.7122 59.098 18.1805 59.6172 17.7231C59.9026 17.4017 59.7664 17.1665 60.0516 16.8456C60.1758 16.382 60.3681 16.0362 60.5605 15.6899C60.6598 15.3192 60.8264 15.065 60.8339 14.6697C60.8651 14.1812 60.9894 13.7175 61.0454 13.1366C61.027 12.8334 61.1698 12.6724 61.0583 12.3449C61.0399 12.0417 61.0216 11.7385 60.9112 11.4112C60.9858 11.133 60.8744 10.8049 60.763 10.4773C60.7208 10.2674 60.7273 9.87122 60.523 9.51822C60.4117 9.19012 60.3264 8.76938 60.0296 8.39217C59.9874 8.18221 59.9194 8.06436 59.7584 7.92161C59.7649 7.52547 59.4688 7.14786 59.172 6.77065C59.0617 6.44285 58.5981 6.31862 58.5797 6.01543C58.2582 5.73061 57.8443 5.4205 57.6163 5.16073C57.2947 4.87592 56.7883 4.54159 56.3496 4.32441C55.8427 3.98994 55.311 3.74786 54.8728 3.53083C54.5264 3.33896 54.1984 3.44974 53.8526 3.25747C53.0609 3.24457 52.3439 2.95282 51.5955 3.15016C51.1254 3.42152 50.7611 2.92661 50.2224 3.08052C49.827 3.07359 49.4314 3.06721 48.985 3.24588C48.7073 3.17146 48.3544 3.37518 48.0514 3.39302C47.7482 3.41139 47.3959 3.61526 47.0679 3.72604C46.6228 3.90445 46.1272 4.26915 45.682 4.44812C45.4221 4.67674 45.0443 4.97341 44.9018 5.1333C44.7598 5.29388 44.5923 5.54727 44.2891 5.56564C44.0972 5.91212 43.7196 6.20823 43.5521 6.46162C43.3349 6.90034 42.9573 7.19646 42.8578 7.56769C42.7834 7.84543 42.6163 8.09951 42.4489 8.35235C42.2572 8.69827 42.133 9.1619 42.0086 9.62608L41.7849 10.4609C41.8027 10.764 41.6358 11.0175 41.6538 11.32C41.5727 11.9944 41.609 12.6001 41.6205 13.2988C41.7561 13.5338 41.6567 13.905 41.675 14.2082C41.7178 14.4183 41.6432 14.6966 41.754 15.0245C41.9826 15.2844 42.0934 15.6124 42.2049 15.9399C42.3156 16.2679 42.4512 16.5034 42.6798 16.7633C42.7225 16.9734 42.6976 17.0664 42.6729 17.1588C43.1796 17.4938 43.3337 18.032 43.698 18.5269C43.9266 18.7868 44.0125 19.2077 44.4512 19.4249C44.7295 19.4995 45.0938 19.9944 45.4396 20.1866C45.6931 20.3536 45.8543 20.4958 46.0396 20.5455C46.4967 21.0658 46.9852 21.0971 47.5169 21.3392C47.6093 21.364 47.6773 21.4818 47.8632 21.5316C48.1161 21.699 48.1594 21.9092 48.1097 22.0946C48.2708 22.2368 48.5242 22.4043 48.6846 22.5469C48.6846 22.5469 48.7523 22.6641 48.8452 22.689C49.2412 22.696 49.519 22.7705 49.8967 22.4738C50.1821 22.1524 50.51 22.0416 50.8623 21.8377C51.1901 21.7275 51.4933 21.7091 51.8143 21.9938C52.1354 22.2785 52.5066 22.3779 52.8276 22.6626L53.0119 22.712L53.012 22.7114Z" fill="#404040"/>
<path fill-rule="evenodd" clip-rule="evenodd" d="M49.4514 21.1614C49.2412 21.2047 49.0802 21.0619 48.8267 20.895C48.8332 20.4988 49.2541 20.413 49.5324 20.4875C49.8107 20.5621 50.0213 20.5195 50.2743 20.6863C50.1997 20.9646 49.8967 20.9824 49.6615 21.1187C49.6622 21.1183 49.5444 21.1863 49.4514 21.1614ZM52.7352 21.1465C52.4327 21.1645 51.9436 21.133 51.7399 20.7802C51.7219 20.4777 52.1424 20.3911 52.3277 20.4408C52.606 20.5153 52.8843 20.5899 53.1372 20.7573L53.2047 20.875C53.0631 21.0357 52.8778 20.986 52.7352 21.1465ZM54.2077 20.8449C53.9975 20.8882 53.484 20.9498 53.3982 20.5289C53.3798 20.2257 53.8008 20.1393 53.918 20.0717C54.3141 20.0782 54.7594 19.8993 55.1986 20.1166L55.291 20.1413C55.0993 20.4873 54.7465 20.691 54.4185 20.8018C54.4182 20.8028 54.3253 20.7779 54.2077 20.8449ZM48.2708 20.7454C48.0612 20.7883 47.7824 20.7136 47.4792 20.732C47.5041 20.639 47.4117 20.6143 47.3188 20.5894C47.0652 20.4224 46.9475 20.4899 46.7438 20.137C46.8184 19.8588 47.2826 19.9831 47.4927 19.9404C47.9136 19.8545 48.1422 20.1144 48.4447 20.0965C48.6053 20.2385 48.6053 20.2385 48.7911 20.2883C48.7413 20.4742 48.4561 20.7951 48.2708 20.7454ZM51.2519 20.749L50.7883 20.6248C50.8132 20.5319 50.8379 20.4395 50.9558 20.3714C51.1653 20.3285 51.3016 20.5637 51.2519 20.749ZM52.143 20.3913L52.0506 20.3665C51.9576 20.3416 51.8652 20.3168 51.8901 20.2239C52.1748 19.9029 52.6453 19.6317 53.109 19.7559C52.9171 20.1024 52.5642 20.3061 52.2613 20.3234L52.143 20.3913ZM50.2814 20.2903C50.0464 20.426 49.7 20.2336 49.3293 20.1343C49.144 20.0846 49.0758 19.9673 48.9154 19.8247L48.9401 19.7323C49.132 19.3858 49.546 19.6954 49.8243 19.77C50.0096 19.8196 50.3559 20.012 50.3992 20.2223L50.2814 20.2903ZM53.6153 20.0902L53.5224 20.0653C52.9658 19.9162 53.7707 19.1386 54.1414 19.2379C54.3267 19.2876 54.4695 19.1266 54.7229 19.2941C54.463 19.5227 54.2705 19.8691 53.9426 19.9798C53.8249 20.0473 53.7325 20.0226 53.6153 20.0902ZM55.9464 19.9196C55.7108 20.0552 55.0624 19.8814 55.372 19.4675C55.8165 19.2889 56.263 19.1097 56.6832 19.0242C56.8011 18.9562 57.0117 18.9136 57.1469 19.1484C56.9124 19.2843 56.7449 19.5377 56.6023 19.6981C56.3666 19.8342 56.1323 19.9694 55.9464 19.9196ZM46.4232 19.8531C45.9774 20.0319 45.7737 19.679 45.4279 19.4868C45.2673 19.3447 45.1069 19.2021 44.9706 18.9669C45.3483 18.6708 45.7864 18.8879 46.2259 19.1046C46.3863 19.2472 46.6646 19.3218 46.8003 19.5568L46.8679 19.674L46.608 19.9026L46.4232 19.8531ZM48.6122 19.8431C48.3772 19.9788 48.1238 19.8112 47.9385 19.7616C47.6849 19.5946 47.3386 19.4022 47.2278 19.0743L47.3699 18.9137C47.7659 18.9207 48.2724 19.2545 48.7295 19.7749L48.6122 19.8431ZM55.1866 19.4178C55.1617 19.5107 55.1617 19.5107 55.0693 19.486L54.9333 19.2503C55.1008 18.9969 55.4784 18.7008 55.7816 18.6824C55.7816 18.6824 55.8993 18.6149 55.9911 18.6395C56.2203 18.8996 55.6572 19.1466 55.4898 19.3994C55.3967 19.3751 55.279 19.4426 55.1866 19.4178ZM46.9921 19.2103C46.7571 19.346 46.4108 19.1536 46.1827 18.8938C46.1147 18.776 46.1147 18.776 46.0217 18.7511L45.9293 18.7263L46.0038 18.4486C46.3815 18.1519 46.7209 18.7398 47.0419 19.0244L46.9921 19.2103ZM57.4819 18.6417C57.2462 18.7778 56.9253 18.4925 57.0679 18.3321C56.9502 18.3996 56.8324 18.4676 56.6714 18.3249C56.7459 18.0466 57.0992 17.8436 57.31 17.8004L57.3533 18.0107C57.5197 17.757 57.8049 17.4361 58.0405 17.3006C58.25 17.2577 58.4608 17.2146 58.6467 17.2644C58.5474 17.6351 58.3799 17.8885 58.0957 18.2096C57.9515 18.3696 57.6921 18.5984 57.4819 18.6417ZM44.8842 18.5459C44.674 18.5892 44.5816 18.5644 44.3957 18.5146C44.0743 18.2293 43.7105 17.7345 43.7169 17.3389C43.9088 16.9924 44.2729 17.4879 44.6194 17.6798C44.5767 17.4697 44.3475 17.2096 44.6327 16.8887C44.818 16.9384 44.9969 17.3842 45.3433 17.5761C45.4789 17.8116 45.6394 17.9537 45.5649 18.232C45.4228 18.3925 45.3299 18.3676 45.1942 18.1326L44.9834 18.1758C44.9586 18.2682 45.0516 18.2931 45.1198 18.4104C45.095 18.5028 44.8842 18.5459 44.8842 18.5459ZM54.4531 17.3332C54.4283 17.4256 54.2678 17.2835 54.1501 17.351C54.0144 17.116 53.829 17.0664 53.8107 16.7632C53.4145 16.7566 52.9942 16.8427 52.6235 16.7433C51.8319 16.7299 50.9721 16.5991 50.2486 16.7035C49.8774 16.6041 49.5742 16.6224 49.2715 16.641C48.8761 16.634 48.48 16.6275 48.0596 16.7135C47.6884 16.614 47.2686 16.7002 46.8974 16.6007C46.6807 17.0396 46.1847 17.4036 46.0063 16.9585C45.8273 16.5133 46.2548 16.0313 46.7 15.8523C47.1458 15.6735 47.4306 15.3519 47.5299 14.9812C47.7471 14.5425 47.6613 14.1216 47.6676 13.726C47.5136 13.1878 47.5698 12.6063 47.6258 12.0254C47.6578 11.5365 47.5285 10.9059 47.6527 10.4423C47.6349 10.1392 47.6414 9.74308 47.2949 9.55121C47.1593 9.3162 46.881 9.24163 46.6529 8.98187C46.6096 8.77163 46.6345 8.67868 46.6593 8.58628C46.7089 8.40094 46.9192 8.35766 47.0121 8.38256C47.2158 8.73542 47.4936 8.80984 47.7719 8.8844C48.0502 8.95897 48.1362 9.37932 48.3712 9.24364C48.6495 9.31821 49.0953 9.13939 49.2622 8.88586C49.4972 8.75018 49.7146 8.31091 49.9928 8.38548C50.0852 8.41023 50.2711 8.46004 50.3392 8.57789L50.3322 8.97333C49.9297 9.3624 49.6016 9.47372 49.2495 9.67704C48.8966 9.88076 48.9583 10.3942 48.8837 10.6725C48.8517 11.1614 48.8206 11.6494 48.8817 12.1627C48.7824 12.5334 48.9115 13.1645 48.3484 13.4115C48.5931 13.3283 48.8433 13.2626 49.0973 13.2149C49.2146 13.1467 49.2393 13.0543 49.3323 13.0792C49.7283 13.0863 50.1737 12.9068 50.4831 12.4933C50.7252 11.9617 50.5966 11.3307 50.6278 10.8421C50.6344 10.446 50.7337 10.0753 50.53 9.72247C50.4192 9.39452 50.4257 8.99838 50.4072 8.69574C50.4143 8.29975 50.934 7.84305 50.5698 7.34759C50.5087 6.83429 49.903 6.87065 49.6063 6.49289C49.3529 6.32538 49.4275 6.04709 49.595 5.79371C49.923 5.68294 50.1268 6.03524 50.2873 6.17785L50.2624 6.2708C50.5656 6.25242 50.9368 6.35189 51.0221 6.77264L51.1145 6.79739C51.2999 6.84706 51.4857 6.89686 51.7208 6.76118C52.0731 6.55732 52.3335 6.32884 52.6858 6.12497C52.8284 5.96453 53.1813 5.76081 53.2921 6.08876C53.5207 6.34867 53.118 6.73828 52.6978 6.82375C52.3697 6.93508 51.8992 7.20629 51.7998 7.57697C51.7367 8.55389 51.674 9.53151 51.6606 10.3231C51.7648 11.0472 51.6586 11.8133 51.7883 12.4446C51.7386 12.6299 51.6888 12.8158 51.7072 13.119C51.9855 13.1936 52.2454 12.965 52.5911 13.1572L52.6159 13.0648C52.523 13.0399 52.4053 13.1074 52.2199 13.0578C52.0162 12.7049 52.0908 12.4266 52.0729 12.1236L52.3461 11.1039C52.6984 10.9 53.0513 10.6963 53.3614 10.2825C53.6894 10.1717 54.1774 10.2029 54.2638 10.6239C54.239 10.7163 54.239 10.7163 54.3065 10.834C54.0466 11.0626 53.7434 11.081 53.5575 11.0312C53.1798 11.3279 52.9633 11.7662 53.0492 12.1871C52.9747 12.4648 52.993 12.7686 52.8007 13.1143C53.2643 13.2386 53.7778 13.1769 54.1554 12.8808C54.4899 12.3739 54.4968 11.9784 54.3427 11.4402C54.3249 11.1372 54.3995 10.8589 54.5912 10.513C54.8417 10.2825 55.024 9.9875 55.1179 9.66029C55.3096 9.31436 55.4339 8.85073 55.7192 8.52931C56.0288 8.11534 56.5919 7.86834 56.8388 8.43199C56.9495 8.75994 56.5476 9.14915 56.2687 9.07443C55.9657 9.09227 55.916 9.27761 55.7491 9.53114C55.7669 9.83418 55.5998 10.0883 55.7356 10.3227C55.7285 10.7187 55.7469 11.0219 55.7898 11.2315C55.7833 11.6276 55.8693 12.0479 55.9801 12.3759C56.1157 12.6109 56.0843 13.1 56.4308 13.2918C56.8015 13.3912 57.2218 13.3051 57.4008 13.7504C57.63 14.0105 57.5305 14.3817 57.0841 14.5604C56.8497 14.6962 56.5034 14.5038 56.3924 14.1764C55.9536 13.9597 55.5079 14.138 55.1372 14.0387C53.8571 13.9939 52.6699 13.9741 51.3651 14.0218C50.6659 14.0331 50.0844 13.9769 49.4538 14.1062C49.2183 14.2417 49.1437 14.52 48.8156 14.6313C48.5126 14.6492 48.2094 14.6675 47.9138 14.2901C47.8641 14.4754 48.117 14.6428 48.3456 14.9027C48.5309 14.9523 48.7596 15.2123 48.7099 15.3976C48.8207 15.7255 49.2416 15.6397 49.4269 15.6893C50.0331 15.6531 50.707 15.7341 51.3382 15.6049C51.6661 15.4941 52.0006 14.9872 52.007 14.5916C52.2923 14.2702 52.7311 14.4874 52.9839 14.6548C53.3302 14.8472 53.3233 15.2426 53.527 15.5955C53.6876 15.7375 53.7556 15.8554 53.9161 15.998C54.2873 16.0975 54.7758 16.1287 54.9548 16.574C55.0899 16.8089 54.9656 17.273 54.6631 17.291C54.5704 17.265 54.5704 17.265 54.4531 17.3332ZM58.7456 16.893C58.5597 16.8432 58.3069 16.6758 58.1891 16.7439L58.0032 16.6941C57.9102 16.6692 58.0281 16.6011 57.9599 16.4838C58.3133 16.2802 58.2269 15.8592 58.5552 15.7491C58.6223 15.8661 58.5974 15.9591 58.5725 16.052C58.6665 16.0772 58.7833 16.0089 58.7833 16.0089C58.9259 15.8484 58.9756 15.6631 59.1183 15.5021C59.2113 15.527 59.4457 15.3912 59.4705 15.2988C59.7245 15.4659 59.6498 15.7447 59.4823 15.9981C59.408 16.2753 59.073 16.7821 58.7456 16.893ZM43.7056 16.6397C43.3527 16.8434 43.0561 16.4657 42.828 16.2059C42.6243 15.8531 42.6308 15.4569 42.52 15.129L42.5448 15.0366C42.6874 14.8762 42.6874 14.8762 42.7798 14.9009C43.1013 15.1857 43.1441 15.3958 43.3727 15.6557C43.4657 15.6806 43.5331 15.7983 43.5331 15.7983L43.707 15.1494C43.707 15.1494 43.7319 15.0564 43.8498 14.9884C44.1032 15.1559 44.1892 15.5762 44.3247 15.8118C44.2502 16.0901 44.4786 16.3505 44.2183 16.5785L43.9406 16.504C43.848 16.4798 43.7056 16.6397 43.7056 16.6397ZM59.5699 14.9276L59.4781 14.903C59.1312 14.7104 59.3236 14.3641 59.3051 14.0614C59.4974 13.7156 59.5719 13.4374 59.7642 13.0916C59.814 12.9057 60.0247 12.8631 60.1414 12.7948C60.4635 13.0797 60.1534 13.4935 60.1967 13.7038C60.1902 14.0999 60.0909 14.4706 59.7127 14.7666C59.6878 14.8595 59.5948 14.8346 59.5699 14.9276Z" fill="white"/>
<path fill-rule="evenodd" clip-rule="evenodd" d="M59.0145 14.7787L58.8957 14.8459C58.7854 14.5181 59.0697 14.1964 58.9346 13.9616C58.9842 13.7762 58.9659 13.473 59.1085 13.3126C59.4046 13.6902 59.3053 14.0609 59.2307 14.3392L59.1561 14.6175L59.0145 14.7787ZM42.9473 14.6475C42.9225 14.7399 42.8296 14.715 42.8296 14.715C42.5766 14.5482 42.2978 14.4735 42.2794 14.1703C42.1004 13.725 42.0393 13.2118 42.349 12.7972C42.6024 12.9648 42.7381 13.1998 42.6884 13.3851C43.1024 13.6947 42.9105 14.0411 43.0215 14.3685C43.0899 14.4871 43.1574 14.6048 42.9473 14.6475ZM43.5784 14.5184C43.3434 14.6541 43.2752 14.5367 43.1148 14.3941C43.1645 14.2088 43.0282 13.9737 42.9857 13.763C43.1526 13.5095 43.0418 13.1815 43.1164 12.9032C43.0737 12.6931 43.3336 12.4645 43.5438 12.4212C43.6795 12.6562 43.58 13.0275 43.7157 13.2625C43.802 13.6841 43.7951 14.0795 43.5784 14.5184ZM59.9384 12.4415C59.8205 12.5096 59.8206 12.5096 59.7276 12.4846C59.3136 12.1751 59.6487 11.6683 59.6552 11.2722C59.6368 10.969 59.6865 10.7836 59.8292 10.6227C60.1081 10.6974 60.1004 11.0932 60.2365 11.3289C60.4397 11.6816 60.3155 12.1452 59.9384 12.4415ZM42.5915 12.2663C42.2885 12.2841 42.0166 11.8139 42.0911 11.5357L42.2899 10.7937C42.2466 10.5835 42.3645 10.5154 42.5995 10.3798C42.7601 10.5218 42.7785 10.825 42.8211 11.0357L42.7714 11.221L42.9573 11.2708C43.0069 11.0855 43.1491 10.9243 43.1988 10.739C43.2236 10.6466 43.3165 10.6715 43.4338 10.6033C43.6375 10.9562 43.4706 11.2097 43.4885 11.5122C43.3465 11.6728 43.4573 12.0007 43.1292 12.1121C43.0362 12.0872 42.9687 11.9695 42.9005 11.8521C42.9254 11.7592 42.9254 11.7592 42.833 11.7344C42.8762 11.9452 42.8265 12.1306 42.5915 12.2663Z" fill="white"/>
<path fill-rule="evenodd" clip-rule="evenodd" d="M59.4066 12.2L59.3136 12.1751C59.2704 11.9648 59.32 11.7795 59.3698 11.5936C59.5308 11.7364 59.5492 12.0395 59.4066 12.2ZM59.6998 9.99261C59.5821 10.0601 59.5821 10.0601 59.4902 10.0355C59.422 9.91819 59.422 9.91819 59.4469 9.82524C59.1681 9.75053 59.0568 9.42244 59.1066 9.23655C58.9034 8.88384 58.885 8.58065 59.0773 8.23487C59.3551 8.30929 59.5593 8.66229 59.6025 8.87308C59.7809 9.31819 59.8922 9.64628 59.6998 9.99261ZM43.6332 9.86155C43.516 9.92919 43.4231 9.90429 43.2625 9.76223C43.2872 9.66983 43.2192 9.55198 43.2192 9.55198C43.1943 9.64493 43.1695 9.73732 42.9345 9.873C42.8421 9.84825 42.7059 9.61309 42.6377 9.49579L42.5946 9.285C42.7621 9.03162 42.7008 8.51887 43.1461 8.33991C43.1461 8.33991 43.171 8.24696 43.2639 8.27187C43.3563 8.29663 43.5417 8.34629 43.6843 8.18585C43.7276 8.3961 43.6779 8.58144 43.492 8.53163L43.318 9.18115C43.6459 9.07037 43.7703 8.6062 44.0052 8.47106L44.191 8.52087C44.5617 8.6202 44.1592 9.00926 44.2025 9.21951C44.0355 9.47304 43.8687 9.72602 43.6332 9.86155ZM58.9822 9.70072C58.9575 9.79312 58.9575 9.79312 58.8656 9.76851C58.7543 9.44041 58.5251 9.18036 58.6679 9.01937C58.9219 9.18648 58.9651 9.39728 59.0322 9.51429L58.9822 9.70072ZM44.551 7.92116L44.5261 8.01411C44.3407 7.96445 44.3904 7.7791 44.3904 7.7791C44.5823 7.43263 44.7496 7.17979 44.9848 7.04357L45.3555 7.14289C45.1885 7.39642 45.089 7.76765 44.7611 7.87843C44.7612 7.87788 44.6434 7.94592 44.551 7.92116ZM58.0824 7.86925L58.0577 7.96165C57.8971 7.81959 57.922 7.72665 57.6437 7.65208C57.6684 7.55968 57.6004 7.44183 57.6933 7.46674C57.8787 7.5164 58.1073 7.77631 58.0824 7.86925ZM58.7563 7.9502C58.4283 8.06098 58.1564 7.59082 58.0214 7.35541C58.0711 7.17007 57.935 6.93437 58.1273 6.58859C58.3559 6.8485 58.7023 7.04092 58.7195 7.34382C58.8805 7.48657 58.806 7.76486 58.7563 7.9502ZM43.9695 7.86498L43.8771 7.84022C43.7161 7.69746 43.7409 7.60507 43.6734 7.48736C43.6983 7.39442 43.8403 7.23384 43.7728 7.11613C43.9398 6.8626 44.2003 6.63413 44.5035 6.61575C44.6148 6.94384 44.3047 7.35766 44.2052 7.7289L43.9695 7.86498ZM45.7401 6.45078C45.7154 6.54318 45.623 6.51842 45.623 6.51842C45.5548 6.40112 45.5548 6.40112 45.6045 6.21578C45.8644 5.98716 46.2172 5.78344 46.5635 5.97585C46.3027 6.20364 46.0433 6.43241 45.7401 6.45078ZM56.9891 6.38382C56.6611 6.49459 56.2472 6.18502 56.0186 5.92511C56.3465 5.81434 56.6681 6.09915 57.014 6.29087L56.9891 6.38382ZM57.5955 6.34706C57.5707 6.43946 57.4783 6.4147 57.4783 6.4147C57.2248 6.24774 56.9287 5.87013 56.9103 5.56693C57.1702 5.33831 57.4421 5.80846 57.5776 6.04402C57.67 6.06877 57.6453 6.16117 57.6204 6.25412L57.5955 6.34706ZM45.1836 6.30165C45.0659 6.36915 44.9735 6.34439 44.9053 6.22708L44.9123 5.8311C45.1972 5.50953 45.4571 5.2809 45.7601 5.26307C45.8525 5.28783 45.8278 5.38023 45.8278 5.38023C45.7532 5.65851 45.4933 5.88714 45.3016 6.23306L45.1836 6.30165ZM55.63 5.52274C55.3021 5.63352 54.8881 5.32395 54.5418 5.13153C54.6411 4.76085 55.0805 4.97762 55.3334 5.14498C55.4258 5.16974 55.5869 5.31195 55.6549 5.4298L55.63 5.52274ZM47.1077 5.42551C47.0828 5.51846 46.8975 5.46879 46.9224 5.37585C47.1142 5.02938 47.5351 4.9435 47.788 5.11087C47.5286 5.33964 47.3185 5.38238 47.1077 5.42551ZM46.5761 5.18343L46.3907 5.13377C46.1621 4.87386 46.7499 4.53446 46.9855 4.39893C47.1708 4.44859 47.1957 4.35565 47.3134 4.28815C47.567 4.45512 47.047 4.91291 46.9295 4.97986L46.5761 5.18343ZM56.0569 5.04059C55.8468 5.08333 55.5252 4.79851 55.3648 4.6559C55.3896 4.56351 55.2972 4.53875 55.4394 4.37762C55.6253 4.42743 56.0391 4.73755 56.0569 5.04059ZM53.7318 4.81489C53.5217 4.85762 53.3364 4.80796 53.0823 4.64085C53.1569 4.36256 53.5529 4.36964 53.7382 4.4193C53.8059 4.53645 54.0165 4.49386 54.0847 4.61117C53.9674 4.67935 53.8248 4.83979 53.7318 4.81489ZM48.9826 4.73541C48.8649 4.8029 48.7725 4.77814 48.6114 4.63593C48.6612 4.45005 48.9642 4.43221 49.175 4.38908L49.2178 4.59918C49.1929 4.69212 49.0756 4.76031 48.9826 4.73541ZM54.4623 4.31505C54.1349 4.42597 53.6956 4.20865 53.3745 3.92453C53.7273 3.72081 54.0489 4.00562 54.4196 4.10495C54.4196 4.10495 54.512 4.12971 54.4871 4.22265L54.4623 4.31505ZM48.4082 4.28323C48.2905 4.35072 48.1981 4.32596 48.037 4.18376C48.2969 3.95513 48.625 3.84381 48.9033 3.91838C48.7605 4.07936 48.6185 4.23994 48.4082 4.28323Z" fill="white"/>
<path fill-rule="evenodd" clip-rule="evenodd" d="M37.4383 44.4801L33.7336 44.5808C33.2339 43.8498 33.593 43.2511 33.4888 42.527C33.3913 41.408 33.4107 40.2201 33.4065 39.125C33.4582 37.4494 33.51 35.7733 33.5604 34.098C33.4567 33.3741 33.4447 32.6753 33.6186 32.0263C34.8128 31.6502 36.1608 31.8133 37.5333 31.8828C37.8797 32.0752 38.0154 32.3102 38.5039 32.3415C40.0395 31.063 41.6158 31.4853 43.0563 31.6727C43.823 31.7791 44.6082 32.1881 45.2004 32.9434C45.3616 33.0856 45.3117 33.2714 45.5651 33.439C45.6937 34.07 45.9414 34.6327 46.002 35.1458C46.0928 36.6615 46.1156 38.0593 45.6505 39.4254C45.2599 40.5132 44.0339 41.3778 43.1002 41.5249C41.4176 41.8693 39.7663 41.725 38.0607 40.6721C37.695 41.6675 38.0955 42.7687 37.7974 43.8813C37.84 44.0919 37.8152 44.1843 37.7654 44.3702C37.7413 44.4622 37.6242 44.5299 37.4383 44.4801ZM63.4964 41.8211C62.1914 41.8693 60.3051 41.8608 59.2865 40.0965C59.2183 39.9792 59.1513 39.8616 59.1762 39.7687C58.718 39.248 58.8001 38.5744 58.646 38.0362C58.4308 36.9848 58.4935 36.0071 58.7668 34.9875C58.8553 33.9178 59.4377 32.4835 60.7739 31.9473C63.3048 31.0351 65.8147 31.3103 68.3251 31.5856C69.3708 31.7662 70.5623 32.8807 70.8035 33.8395C71.351 35.8748 71.4787 37.9963 70.61 39.7512C70.3615 40.6785 69.304 41.2899 68.4374 41.5546C66.847 41.9243 65.1471 41.9657 63.4964 41.8211ZM52.9698 41.7839C51.9437 41.9063 50.7382 41.5833 49.8422 40.8463C48.6387 39.033 49.3706 37.0428 49.1938 35.1068C49.2008 34.7108 49.1825 34.4076 49.1641 34.1044C49.0284 33.8694 48.9602 33.7521 48.7998 33.6095C48.3789 33.6954 48.0082 33.5961 47.637 33.4966C47.2479 33.0941 47.5822 32.5877 47.4964 32.1668C47.8556 31.5675 48.5231 32.0441 48.9935 31.7734C49.2847 31.0562 49.0879 30.3079 49.1943 29.5413C49.2256 29.0527 49.1645 28.5394 49.1958 28.0509C49.8582 27.4332 50.5255 27.9103 51.2738 27.7135C51.973 27.7022 52.764 27.7155 53.3704 27.6787C53.5054 27.9142 53.5487 28.1244 53.7097 28.2672L53.6997 31.6439C54.6448 32.1954 55.6357 31.467 56.649 32.1359L56.7172 32.2532L56.7215 33.3478C55.8734 33.9151 55.0891 33.5069 54.2728 33.5859C54.062 33.629 53.8512 33.6721 53.7097 33.8329C53.7077 35.3231 53.6553 36.999 53.8391 38.5396C54.1981 39.4304 55.2673 39.5188 55.9908 39.4144C56.0837 39.4393 56.2934 39.3959 56.4793 39.4457C57.0294 39.991 56.9414 41.0608 56.1682 41.3506C55.0917 41.6569 54.016 41.9646 52.9698 41.7839ZM77.3553 41.6582C76.1432 41.7314 75.0663 42.0393 73.91 41.5303C73.8216 38.5251 73.8246 35.5438 73.853 32.4703C73.7848 32.353 73.9525 32.0991 74.188 31.9635L78.1708 31.9379C78.4422 32.4079 78.6032 32.5506 79.0662 32.6747C81.0228 31.3103 82.9652 30.7379 84.9483 31.8658C86.2155 32.7023 86.5664 33.9888 86.5707 35.0834C86.5265 36.3637 86.5493 37.7615 86.5046 39.0416C86.6517 39.9752 86.36 40.6922 86.5328 41.5343C85.3134 42.0022 84.1089 41.6795 82.9207 41.6593C82.7348 41.6095 82.5002 41.7459 82.3143 41.6961C81.8412 39.383 82.6733 37.0212 81.6858 34.7689C81.0001 33.9887 79.8378 33.8759 79.0823 34.4692C78.9646 34.5367 78.73 34.6731 78.6804 34.8584C78.314 35.8537 78.4363 36.8803 78.3488 37.9503C78.3283 39.1379 78.4268 40.2571 78.3139 41.42C78.029 41.7397 77.6578 41.6403 77.3553 41.6582ZM22.9581 41.3959L14.2943 41.4594C13.9287 36.8886 14.1686 32.282 14.385 27.7675L14.4346 27.5822L18.4176 27.5559C18.8925 28.3793 18.5511 29.2817 18.6306 30.0982C18.5904 32.4724 18.7612 34.8047 18.6286 37.1541C18.6463 37.4577 18.6896 37.6679 18.7081 37.9706C19.8207 38.2687 21.0333 38.1957 22.1281 38.1908C22.5237 38.1972 22.7345 38.1541 23.1299 38.161C23.7412 39.219 23.4677 40.2397 23.3799 41.3091C23.2364 41.4704 23.0511 41.4208 22.9581 41.3959ZM30.1999 41.4477L26.4278 41.4308C25.9281 40.6998 26.3121 40.008 26.1835 39.3771C26.248 36.9098 26.1027 34.4847 26.2602 32.0423C26.9908 31.5419 27.6823 31.9265 28.4059 31.8221C29.0802 31.9037 29.7611 31.5887 30.4279 32.0656C30.5322 32.7897 30.4259 33.5558 30.5556 34.1871C30.5785 35.5844 30.4165 36.9327 30.5565 38.2623C30.4934 39.2392 30.4308 40.2163 30.4358 41.3111C30.3427 41.2867 30.3178 41.3796 30.1999 41.4477ZM65.0065 40.6359C65.5199 40.5743 66.0576 40.4201 66.5103 39.8458C66.8646 38.1517 66.7986 36.5436 66.5719 34.7935C66.5536 34.4903 66.5103 34.2801 66.4919 33.9769C65.9066 32.8262 64.8107 32.8309 63.9446 33.0957C63.1221 33.5715 63.0834 34.4553 63.2131 35.0866C62.8404 36.4775 62.8633 37.8747 63.0961 39.2298C63.1642 39.3477 63.2074 39.5579 63.2074 39.5579C63.6832 40.3804 64.3569 40.4619 65.0065 40.6359ZM39.4607 39.1586C40.1351 39.2397 40.8337 39.2282 41.4038 38.5858C41.677 37.5661 41.69 36.7738 41.45 35.8153C41.4634 35.0237 41.2235 34.0646 40.2962 33.8162C39.6467 33.6421 38.7875 33.5115 38.2608 34.3642C37.8519 35.1489 38.1414 35.9226 38.1281 36.7137C37.6943 37.5913 38.1381 38.9026 39.3684 39.1333C39.3677 39.1337 39.3677 39.1337 39.4607 39.1586ZM28.9396 30.5739C28.0051 30.722 27.1396 30.9864 26.2004 30.0392C26.1207 29.2233 25.9987 28.1961 26.8464 27.6281C27.9477 27.2271 29.092 27.0373 30.2415 27.9413C30.717 28.7648 30.6222 30.2296 29.4285 30.6059C29.2173 30.6484 29.1249 30.6236 28.9396 30.5739Z" fill="white"/>
</svg>
