<svg width="66" height="60" viewBox="0 0 66 60" fill="none" xmlns="http://www.w3.org/2000/svg">
<path d="M65.3029 0H0.844727V60H65.3029V0Z" fill="#404040"/>
<path fill-rule="evenodd" clip-rule="evenodd" d="M41.8441 15.2239C45.251 15.2239 48.0154 29.5912 48.0154 47.3069H52.9602C52.9602 28.2284 47.9959 12.7515 41.8635 12.7515C38.3788 12.7515 35.2639 17.4043 33.2198 24.6658C31.1757 17.4043 28.0803 12.7515 24.5761 12.7515C18.4437 12.7515 13.4794 28.2284 13.4794 47.3069H18.4242C18.4242 29.5912 21.1887 15.2239 24.5955 15.2239C28.0024 15.2239 30.7669 28.4815 30.7669 44.8345H35.7117C35.6728 28.4815 38.4372 15.2239 41.8441 15.2239Z" fill="white"/>
<path fill-rule="evenodd" clip-rule="evenodd" d="M55.4327 44.8345C56.0946 44.8345 56.6591 45.3602 56.6591 46.061C56.6591 46.7618 56.0946 47.3069 55.4327 47.3069C54.7513 47.3069 54.1867 46.7813 54.1867 46.061C54.1867 45.3602 54.7513 44.8345 55.4327 44.8345ZM55.4327 47.1123C55.9972 47.1123 56.445 46.6645 56.445 46.061C56.445 45.477 55.9972 45.0097 55.4327 45.0097C54.8681 45.0097 54.4203 45.4575 54.4203 46.061C54.4203 46.6645 54.8486 47.1123 55.4327 47.1123ZM54.946 45.3407V46.7813H55.1601V46.1583H55.3937L55.7831 46.7813H56.0167L55.6079 46.1389C55.822 46.1194 55.9778 46.0026 55.9778 45.7495C55.9778 45.477 55.822 45.3407 55.4716 45.3407H54.946ZM55.1796 45.9831H55.4132C55.6079 45.9831 55.7831 45.9637 55.7831 45.7495C55.7831 45.5548 55.6273 45.5354 55.4716 45.5354H55.1796V45.9831Z" fill="white"/>
</svg>
