<svg width="61" height="60" viewBox="0 0 61 60" fill="none" xmlns="http://www.w3.org/2000/svg">
<path fill-rule="evenodd" clip-rule="evenodd" d="M25.8386 0.18154C25.9192 0.141198 26.0604 0.0403423 26.1209 0C26.363 1.55318 25.2536 2.8643 24.1643 3.83252C22.8734 4.84107 21.3606 5.66809 19.7469 5.95049C21.8447 5.88997 24.0433 5.78912 25.9797 6.73716C28.0775 7.50366 29.7114 9.19804 31.8899 9.76283C32.6161 9.98472 33.3624 10.0049 34.0885 10.1057C33.2414 11.0336 31.8294 11.0941 30.6595 10.8924C27.3917 10.1864 24.3459 8.57273 20.9773 8.27017C17.6289 7.80623 14.1998 9.07701 11.6986 11.2757C9.29821 13.1718 7.60384 15.7738 6.03049 18.3557C6.41374 18.0532 6.77682 17.7506 7.03904 17.3674C8.0476 16.0361 9.15701 14.7854 10.3875 13.6559C12.2634 12.0623 14.5225 10.9529 16.9431 10.489C18.2945 10.3478 19.6662 10.3881 20.9975 10.6504C21.9859 10.8521 22.9944 10.7916 23.9626 10.5898C23.3373 11.195 22.6112 11.6791 21.8043 11.9817C19.6662 12.5263 17.3868 12.4053 15.2689 13.1516C13.1106 13.7164 11.275 15.0477 9.62095 16.5C8.16863 17.7506 7.05922 19.324 5.60689 20.5544C5.74809 20.5342 6.01031 20.5141 6.15151 20.4939C7.46264 19.5862 8.33 18.1742 9.78232 17.4682C10.7909 16.8832 12.0213 16.8631 13.1307 17.085C14.0989 17.2867 15.0066 17.9725 15.3899 18.9205C15.9749 20.2317 15.7126 21.926 14.5629 22.8539C13.4333 24.0238 11.5574 23.9028 10.2261 23.1766C11.0934 22.9144 12.0818 22.7127 12.6466 21.9059C13.2921 21.2402 13.5342 19.9694 12.7475 19.3038C12.1827 18.7995 11.3758 18.8398 10.6698 18.8802C8.26948 19.8484 6.83733 22.1479 4.65885 23.459C3.81166 23.9028 2.84345 24.0843 1.8954 24.1449C2.8031 22.9144 3.38807 21.5024 3.91252 20.0703C4.47731 18.6785 5.12278 17.1858 5.78843 15.8545C7.60383 12.5464 10.0849 9.58129 13.1307 7.3423C15.5109 5.50672 18.2542 4.17543 21.0176 3.06601C22.5305 2.48105 24.1442 1.93643 25.3746 0.806846C25.6167 0.665648 25.7175 0.403423 25.8386 0.18154Z" fill="#404040"/>
<path fill-rule="evenodd" clip-rule="evenodd" d="M30.4981 1.43216C31.5672 1.23045 32.6362 1.14977 33.7053 1.16994C33.8465 1.79524 34.2297 2.44072 34.9156 2.5214C35.5409 2.54157 35.9039 1.95661 36.2065 1.49268C36.8923 1.69439 37.6387 1.87593 38.1026 2.46089C38.7077 3.20722 38.1833 4.49818 37.2554 4.69989C36.4486 4.9016 35.6417 4.59903 34.8349 4.51835C35.8233 5.26468 37.3159 5.82947 38.4052 4.98228C39.212 4.45783 39.3734 3.40893 40.0995 2.8038C40.6442 2.50123 41.2291 2.90466 41.7536 3.0862C45.4449 4.55869 49.0959 6.55563 51.5971 9.7225C53.5335 12.0624 54.8245 14.9267 55.2077 17.9523C55.3086 18.6987 55.3288 19.4652 55.4498 20.2317C56.2163 18.2146 56.0549 15.9957 55.4901 13.9383C57.7896 16.8631 59.0806 20.4737 59.8874 24.0642C58.5158 23.4792 57.1845 22.7329 55.6717 22.6119C53.8159 22.632 52.1215 23.4994 50.3868 24.044C50.8104 22.9749 51.3349 21.9462 51.5568 20.8166C52.061 18.4163 51.9602 15.7738 50.8104 13.555C49.3984 10.7916 46.4131 8.91566 43.3068 8.8148C44.3153 9.39976 45.4852 9.80319 46.2316 10.7311C45.2028 10.7109 44.1741 10.8319 43.1656 11.0941C42.6209 10.7714 42.2377 10.247 41.6527 9.98473C40.4223 9.37959 39.0103 9.39976 37.679 9.21822C34.5121 8.89549 31.6882 7.05991 29.6711 4.65954C29.2273 4.05441 28.6625 3.40893 28.7432 2.62226C29.0054 1.87593 29.8123 1.6137 30.4981 1.43216ZM44.5977 1.4725C43.6295 2.21884 42.3385 2.05747 41.1888 2.11798C42.7218 2.58192 44.1741 3.30808 45.6063 4.03424C45.8887 4.19561 46.1912 4.19561 46.514 4.21578C46.4333 3.16688 45.929 2.15832 45.1827 1.43216C45.0213 1.19011 44.7591 1.33131 44.5977 1.4725Z" fill="#404040"/>
<path fill-rule="evenodd" clip-rule="evenodd" d="M47.8856 21.4016L47.9663 21.1998C48.2689 21.6033 48.289 22.3496 47.7242 22.5311C46.8165 22.9749 45.9088 22.2487 45.2835 21.6234C44.7188 21.22 44.2952 20.6351 43.8111 20.1308C44.1136 21.22 44.8196 22.1681 45.6668 22.9144C45.9492 23.0758 45.9088 23.3985 45.929 23.6809C45.5458 23.8221 45.102 24.0641 44.6784 23.8624C44.0531 23.5195 43.5287 23.0152 43.1051 22.4303C42.4798 21.6033 41.8141 20.7763 41.4309 19.7879C41.5317 21.3814 42.4798 22.7329 43.3269 24.044C42.7823 24.3465 42.0562 24.5079 41.5922 23.9633C40.4626 22.7329 39.8777 21.099 39.5549 19.4853C39.1919 19.4046 38.8288 19.3239 38.4657 19.2432C38.2236 18.9205 38.0824 18.5373 38.1631 18.1338C38.3245 17.0849 37.558 16.036 38.0421 15.0073C38.2438 14.4425 38.8086 14.2005 39.2725 13.8979C39.6961 13.6357 39.9987 13.1919 40.3214 12.8087C40.6038 12.7885 40.9064 12.7885 41.1888 12.7885C41.3502 12.97 41.5115 13.1717 41.6729 13.3533C41.0274 14.0391 40.2408 14.6241 39.9382 15.5519C39.6356 16.2579 39.6155 17.0244 39.7365 17.7708C39.9382 17.2665 40.1197 16.7824 40.3416 16.2781C41.5317 13.6962 44.8398 12.0623 47.583 13.0507C47.7848 13.5752 48.0066 14.0794 48.2487 14.5837C48.9749 14.5434 49.1766 15.3099 49.0959 15.915C48.995 16.4798 49.4186 16.8832 49.6405 17.3472C49.7817 17.7506 49.4388 18.0733 49.2774 18.4162C48.874 18.9609 49.6002 19.6063 49.2573 20.2115C48.8337 20.8368 48.0066 20.6149 47.3813 20.6149C46.9779 20.4535 46.5745 20.2921 46.1509 20.1711C46.635 20.7359 47.2401 21.099 47.8856 21.4016Z" fill="#404040"/>
<path fill-rule="evenodd" clip-rule="evenodd" d="M18.6173 16.2579C17.8306 16.379 17.7701 17.7103 18.5568 17.8716C19.2426 18.0733 19.9082 17.206 19.6057 16.5807C19.3636 16.2781 18.9804 16.1369 18.6173 16.2579Z" fill="#404040"/>
<path fill-rule="evenodd" clip-rule="evenodd" d="M34.7945 12.6675C35.5005 12.1027 36.4082 11.9817 37.2756 11.8606C36.731 12.5868 36.146 13.3129 35.9241 14.2005C35.6417 15.1082 35.9039 16.0562 35.8233 16.9841C35.7628 17.6497 35.0568 18.154 35.2786 18.86C35.5005 19.8282 36.6705 19.9694 37.1747 20.7158C37.3764 21.2402 37.3966 21.805 37.5782 22.3294C37.7799 23.0354 38.2438 23.6406 38.5867 24.286C36.6503 24.286 34.8551 23.3178 33.5641 21.926C32.6967 21.0385 31.8294 19.9896 30.5788 19.687C29.5904 19.566 28.9651 20.4737 28.2389 20.9376C26.948 21.8857 25.2738 22.0067 23.7408 21.926L23.3172 21.7243C23.3172 21.8453 23.2768 21.9865 23.4382 22.0067C24.8098 22.4505 26.2823 22.7127 27.7145 22.4303C28.3801 22.3093 28.9046 21.8453 29.3282 21.3411C30.2964 21.5024 30.8612 22.753 30.1753 23.4994C29.2475 24.3062 27.9364 24.1045 26.8269 23.923C24.5073 23.5397 22.4296 22.3698 20.3318 21.3411C21.4412 21.0788 22.5305 20.3325 22.6919 19.1424C22.9944 17.7103 21.7035 16.6815 20.6142 16.0159C21.1387 16.6815 21.8447 17.2665 22.006 18.1339C22.2481 19.1222 21.4009 19.9694 20.5537 20.3325C19.061 20.8368 17.3868 19.9291 16.7212 18.5776C16.4993 18.275 16.701 17.9725 16.9027 17.7506C16.6607 17.6296 16.4186 17.5085 16.1967 17.4077C16.2573 17.1051 16.2774 16.7622 16.5397 16.5807C18.0122 15.2292 20.0293 14.5232 22.006 14.4022C22.9743 12.9499 24.6283 12.264 26.242 11.8405C28.0372 12.8087 30.0947 13.2524 32.132 12.9902C31.789 13.676 31.3453 14.3618 30.6393 14.7249C29.5904 15.3502 28.3398 15.2695 27.1698 15.2695C27.7145 15.8142 28.4003 16.1974 29.0659 16.5807C29.6711 16.9034 30.4779 17.0043 31.0629 16.5807C32.5354 15.4914 33.201 13.6155 34.7945 12.6675Z" fill="#404040"/>
<path fill-rule="evenodd" clip-rule="evenodd" d="M38.97 26.5654C39.5549 26.5654 40.1197 26.5654 40.7047 26.5654C40.7047 28.0379 40.7249 29.5306 40.6845 31.0031C41.6326 29.6113 42.5604 28.1993 43.569 26.8478C44.1136 26.4444 44.8398 26.6058 45.4852 26.5856C45.4852 29.1877 45.4852 31.7696 45.4852 34.3515C44.8801 34.3515 44.2952 34.3515 43.69 34.3515C43.6497 32.7781 43.7505 31.2048 43.6698 29.6314C42.7823 31.0636 41.7939 32.415 40.8459 33.7867C40.4828 34.4523 39.6558 34.3313 39.0305 34.3918C38.9296 31.7696 38.9901 29.1675 38.97 26.5654ZM0.543945 34.3515C0.907026 31.7696 1.29028 29.1675 1.59284 26.5856C2.15764 26.6259 2.80311 26.4444 3.32756 26.7873C3.69064 27.0697 3.7915 27.5336 3.9327 27.9572C4.31595 29.2885 4.82023 30.5593 5.10262 31.9108C5.6069 30.3374 6.11118 28.7842 6.6558 27.2311C6.95837 26.3839 8.00727 26.6058 8.71326 26.5654C9.036 29.1675 9.41925 31.7494 9.76216 34.3313C9.11668 34.3313 8.4712 34.3313 7.82573 34.3313C7.62402 32.8386 7.44248 31.3258 7.26094 29.8331C6.797 31.3258 6.31289 32.8185 5.8893 34.3313C5.32451 34.3313 4.75971 34.3313 4.19492 34.3313C3.73099 32.8185 3.22671 31.3258 2.82328 29.7928C2.70226 31.2653 2.48037 32.7579 2.27866 34.2304C1.75421 34.4927 1.10874 34.2708 0.543945 34.3515ZM10.9119 26.5654C12.4247 26.5654 13.9578 26.5856 15.4706 26.5654C15.4302 27.0899 15.6521 27.7959 15.0873 28.0984C14.3208 28.1791 13.5543 28.1186 12.7878 28.1388C12.7878 28.643 12.7878 29.1271 12.7878 29.6314C13.5947 29.6314 14.4015 29.6314 15.1882 29.6314C15.1882 29.934 15.1882 30.2366 15.168 30.519C15.1075 30.64 14.9865 30.8619 14.926 30.9627C14.22 31.1241 13.4736 31.0837 12.7677 31.1241C12.7878 31.6889 12.7878 32.2537 12.7878 32.7983C13.5342 32.7983 14.3007 32.7579 15.047 32.8185C15.3294 32.8386 15.4302 33.1815 15.5916 33.3833C15.5714 33.706 15.5714 34.0287 15.5714 34.3515C14.0183 34.3313 12.4853 34.3515 10.9321 34.3313C10.8917 31.7494 10.9119 29.1473 10.9119 26.5654ZM16.6405 26.5654C17.7499 26.6058 18.8795 26.5049 19.9889 26.6259C20.9168 26.7268 21.9052 27.2311 22.2279 28.1589C22.5305 29.1473 22.3893 30.3778 21.5219 31.0434C20.6949 31.7091 19.5653 31.7091 18.5568 31.7292C18.5568 32.5966 18.5769 33.4841 18.5568 34.3515C17.9113 34.3313 17.286 34.3313 16.6405 34.3515C16.6405 31.7494 16.6405 29.1675 16.6405 26.5654ZM18.5971 27.9572C18.5769 28.7641 18.5971 29.5507 18.5366 30.3576C19.0207 30.2769 19.5452 30.2769 20.0091 30.0954C20.6142 29.6919 20.6344 28.7035 20.1301 28.2194C19.6662 27.9572 19.1014 28.0177 18.5971 27.9572ZM23.0953 34.3716C23.0348 31.7696 23.0953 29.1675 23.0751 26.5654C23.6802 26.5654 24.2652 26.5654 24.8703 26.5654C24.8703 28.0379 24.8703 29.5104 24.8703 30.9829C25.6368 29.7726 26.4639 28.6027 27.2707 27.4328C27.5329 27.0899 27.775 26.6461 28.2389 26.5856C28.7029 26.5452 29.1466 26.5654 29.6106 26.5654C29.5904 29.1473 29.6307 31.7494 29.5904 34.3515C28.9853 34.3515 28.3801 34.3716 27.775 34.2506C27.8355 32.6974 27.7548 31.1241 27.8355 29.5709C27.0287 30.8417 26.121 32.0721 25.2738 33.3227C25.0115 33.6657 24.7695 34.1296 24.3257 34.2506C23.9223 34.3716 23.4987 34.3313 23.0953 34.3716ZM32.2328 27.3723C32.4345 26.8881 32.9388 26.5251 33.4834 26.5654C34.7139 26.5452 35.9443 26.5654 37.1747 26.5654C37.1546 28.6229 37.1949 30.7005 37.1546 32.7579C37.3764 32.7579 37.5983 32.7781 37.8404 32.7781C38.0219 33.8472 37.7799 34.9364 37.7799 36.0055C37.3966 36.0055 37.0335 35.9853 36.6503 35.9853C36.4889 35.4609 36.4284 34.8961 36.4082 34.3515C34.9156 34.3515 33.4431 34.3313 31.9706 34.3515C31.9504 34.8961 31.8899 35.4609 31.7487 35.9853C31.3453 36.0055 30.9419 36.0055 30.5586 36.0055C30.5183 35.0373 30.3972 34.0691 30.3972 33.1009C30.3569 32.7176 30.841 32.8185 31.0831 32.7176C31.8092 31.0434 31.7689 29.1473 32.2328 27.3723ZM34.0079 28.1589C33.4834 29.6718 33.6246 31.346 32.8581 32.7781C33.665 32.7781 34.4516 32.7781 35.2585 32.7781C35.2383 31.2249 35.2383 29.6718 35.2585 28.1186C34.8349 28.1388 34.4315 28.1388 34.0079 28.1589ZM46.05 34.3515C46.9981 31.7494 48.0268 29.1675 48.995 26.5856C49.5396 26.5856 50.0843 26.5856 50.6289 26.5856C51.6374 29.1877 52.7065 31.7494 53.6747 34.3716C52.9889 34.3716 52.3031 34.3716 51.6173 34.3716C51.4559 33.9279 51.2945 33.4841 51.1332 33.0403C50.2255 33.0605 49.2976 33.0403 48.3899 33.0605C48.2689 33.5245 48.1075 33.9682 47.8856 34.3918C47.2805 34.3313 46.6753 34.3515 46.05 34.3515ZM49.7817 29.0465C49.5396 29.8735 49.1967 30.6803 48.995 31.5275C49.5396 31.5073 50.0843 31.5073 50.6289 31.5477C50.3062 30.7207 50.0036 29.8936 49.7817 29.0465ZM54.2194 26.5654C54.8648 26.5654 55.5103 26.5654 56.176 26.5452C56.1961 27.5336 56.176 28.522 56.1961 29.5306C57.1038 29.5306 58.0115 29.4902 58.9192 29.5911C58.8385 28.5825 58.8991 27.574 58.8789 26.5654C59.5042 26.5654 60.1497 26.5654 60.775 26.5654C60.775 29.1675 60.775 31.7494 60.775 34.3515C60.1497 34.3515 59.5042 34.3313 58.8789 34.3515C58.8789 33.2824 58.8789 32.1932 58.8789 31.1241C57.9914 31.1241 57.1038 31.1241 56.1961 31.1241C56.176 32.2133 56.2163 33.2824 56.176 34.3716C55.5305 34.3515 54.885 34.3515 54.2395 34.3515C54.2194 31.7494 54.2395 29.1675 54.2194 26.5654Z" fill="#131312"/>
<path fill-rule="evenodd" clip-rule="evenodd" d="M4.57817 38.8899C5.12279 37.8007 6.13135 36.772 7.4223 36.7518C6.5146 37.5385 6.09101 38.7891 6.15152 39.959C6.25238 41.8753 7.28111 43.731 8.85446 44.8404C10.4076 46.0305 12.4046 46.4541 14.3208 46.4945C17.3062 46.5348 20.1705 45.4657 22.8532 44.2555C24.0635 43.6705 25.3141 43.1864 26.4639 42.4804C24.7897 42.5611 23.2768 43.3679 21.7035 43.8722C19.6864 44.5984 17.4675 45.1027 15.3294 44.6992C13.6955 44.4168 12.102 43.3074 11.6582 41.6736C11.4565 40.6247 11.517 39.4547 12.1625 38.5672C13.2518 36.9737 15.5714 36.1467 17.3263 37.1149C18.6576 37.72 19.0207 39.9187 17.7298 40.7457C17.1448 41.1895 16.2976 41.1289 15.7328 40.665C16.1362 40.4431 16.5195 40.1809 16.8624 39.8783C16.8221 39.4749 16.9633 38.9706 16.58 38.7084C15.6925 37.9419 14.1998 38.6681 14.0183 39.7573C13.8166 40.6448 14.1998 41.6534 15.0067 42.0972C16.5598 43.0049 18.5366 42.8032 20.1705 42.2182C23.1558 41.0886 25.7982 39.132 28.9651 38.5269C30.256 38.3453 31.6277 38.3252 32.8783 38.8093C34.3104 39.2934 35.7022 40.3019 37.2958 39.9994C38.7683 39.717 39.4944 38.1436 40.8862 37.72C41.9351 37.3973 43.2059 37.8209 43.7304 38.8294C44.154 39.4144 44.0733 40.1607 44.0733 40.8465C45.5458 41.371 46.9779 42.2182 47.8049 43.5898C48.5311 45.0018 48.5513 46.8172 47.6839 48.1687C47.1191 49.1571 46.0702 49.8227 44.981 50.0849C43.3068 50.4278 41.5922 49.5403 40.624 48.1888C39.8978 47.2811 39.5348 46.1717 39.1919 45.0825C37.9614 46.1516 36.5091 47.0391 34.9156 47.4022C33.3221 47.8258 31.6478 47.8863 30.0543 48.3906C28.1381 48.9553 26.363 49.8832 24.6485 50.8918C22.4901 52.102 20.231 53.2316 17.7701 53.7359C15.6925 54.3007 13.2719 54.0385 11.5977 52.5862C10.4681 51.6583 10.2261 50.1051 10.2059 48.7133C7.78538 47.6442 5.52622 45.8692 4.57817 43.3276C4.01338 41.8955 3.87218 40.2616 4.57817 38.8899ZM41.4107 38.8294C40.8459 38.9706 40.4425 39.7573 40.8257 40.2414C41.0678 40.8062 41.8343 40.8062 42.3386 40.5642C42.7621 40.3019 42.7823 39.717 42.6613 39.2934C42.4596 38.8294 41.8746 38.6681 41.4107 38.8294ZM25.3746 46.1314C22.1271 47.6442 18.7383 49.0159 15.1277 49.2176C14.0586 49.3789 13.0097 49.1167 11.9406 49.1167C12.102 49.9236 12.5659 50.6901 13.3324 51.0532C14.6032 51.7793 16.1564 51.5373 17.5079 51.1943C20.8361 50.206 23.7811 48.3502 26.8875 46.8374C28.9853 45.8692 31.1234 44.9816 33.3422 44.316C30.5788 44.3362 27.8557 45.0018 25.3746 46.1314Z" fill="#404040"/>
<path fill-rule="evenodd" clip-rule="evenodd" d="M46.5947 37.1149C47.5024 37.2561 48.2689 37.8612 49.1766 38.0024C49.7212 38.1033 50.2658 38.184 50.7298 38.5067C51.2139 38.8294 51.8392 38.9505 52.1619 39.4749C52.646 40.1406 52.8276 40.9676 53.0898 41.7341C53.4529 40.9676 53.8361 40.1406 54.5824 39.6766C55.4901 39.2732 56.4987 39.2732 57.4871 39.2934C58.2132 39.2934 58.8587 38.8698 59.5042 38.5672C59.1209 40.2616 58.1931 41.8551 56.8013 42.9242C56.0348 43.5293 55.3489 44.2958 55.1472 45.264C54.6833 47.2005 54.0378 49.1772 52.7469 50.7304C52.646 50.7506 52.404 50.7909 52.3031 50.8111C53.0091 48.6931 53.6142 46.434 53.2511 44.195C53.1705 45.3044 52.7267 46.3331 52.525 47.4425C51.5164 50.4682 49.701 53.3123 47.0788 55.1681C45.8685 56.0959 44.5776 56.923 43.1656 57.4878C39.8172 58.9804 36.146 59.7268 32.495 59.9285C31.8092 60.0092 31.1032 60.0293 30.4174 59.9486C30.7603 59.3637 31.3856 58.9602 31.6479 58.3148C32.2126 57.3062 32.0109 56.1161 31.9706 55.0067C31.8697 56.3582 31.3049 57.7702 30.135 58.5367C29.1265 58.9804 27.9565 58.8392 26.9681 58.456C26.0201 58.0122 25.1326 57.4878 24.2249 56.9835C23.4382 56.5195 22.4902 57.0238 21.6833 56.6809C21.4816 56.7818 21.3001 56.9028 21.1185 57.0238C21.1589 57.1045 21.2194 57.2457 21.2395 57.3264C21.7035 57.044 22.3086 56.8423 22.8129 57.1045C24.0635 57.5483 24.9712 58.5165 25.8991 59.3838C25.8386 59.404 25.7377 59.4444 25.6772 59.4645L25.9192 59.5856C23.3373 59.1418 20.8361 58.2744 18.4761 57.1852C18.4761 56.923 18.4761 56.6607 18.4963 56.3985C18.8997 55.8741 19.6259 55.8741 20.2108 55.753C21.643 55.4303 23.0348 54.926 24.245 54.099C25.5158 53.2518 26.7261 52.2836 28.1784 51.7592C29.5501 51.1137 31.0225 50.7909 32.495 50.6094C34.0684 50.3068 35.7628 50.3472 37.2151 49.5807C37.4773 49.4395 37.7799 49.3588 38.0623 49.2781C38.4254 50.2665 38.97 51.1944 39.7566 51.9003C39.8575 52.0415 40.1601 52.1424 39.9987 52.3441C37.5177 52.7879 35.1375 51.5171 32.6766 51.8802C31.9303 51.981 31.1839 51.981 30.4578 52.1424C32.1118 52.1626 33.7457 52.3845 35.3392 52.7475C37.4975 53.3123 39.7365 53.7158 41.9755 53.4535C43.5488 53.4132 45.0011 52.7475 46.393 52.0617C49.1161 50.4279 50.8306 47.14 50.3062 43.9731C49.9229 42.4804 48.6925 41.4517 47.7848 40.2818C47.22 39.253 46.635 38.2445 46.5947 37.1149ZM27.3514 54.9664C26.9681 55.3698 27.2505 55.9144 27.3514 56.3783C27.775 56.6002 28.2591 56.6607 28.723 56.6607C29.2475 56.2977 29.4694 55.7127 29.3685 55.0874C28.8844 54.4621 27.8758 54.3209 27.3514 54.9664Z" fill="#404040"/>
</svg>
