<svg width="54" height="44" viewBox="0 0 54 44" fill="none" xmlns="http://www.w3.org/2000/svg">
<path fill-rule="evenodd" clip-rule="evenodd" d="M0.31813 0.0234377C1.98219 0.0117189 3.65797 -0.0234375 5.32203 0.0351562C5.32203 0.363281 5.32203 0.691406 5.32203 1.03125C4.02125 1.07812 2.72047 0.984375 1.43141 1.07813C1.41969 1.72266 1.41969 2.37891 1.43141 3.02344C2.62672 3.05859 3.82204 2.97656 5.01735 3.05859C5.07594 3.39844 5.07594 3.73828 5.01735 4.06641C3.82204 4.08984 2.62672 4.03125 1.43141 4.10156C1.40797 5.05078 1.46657 6 1.39625 6.9375C1.04469 6.98438 0.693129 6.97266 0.341567 6.94922C0.294692 4.64062 0.294692 2.33203 0.31813 0.0234377ZM7.7361 0.0351562C6.9275 2.00391 6.11891 3.97266 5.2986 5.92969C5.18141 6.26953 4.97047 6.58594 4.95875 6.96094C5.33375 6.98438 5.70875 6.97266 6.08375 6.96094C6.38844 6.41016 6.50563 5.77734 6.83375 5.23828C7.95875 5.26172 9.08375 5.22656 10.197 5.26172C10.4666 5.80078 10.6072 6.38672 10.9002 6.91406C11.2752 7.04297 11.6853 6.94922 12.0603 6.94922C11.9431 6.43359 11.697 5.96484 11.5095 5.48438C10.7361 3.66797 10.0213 1.82813 9.2361 0.0234377C8.73219 1.80677e-07 8.22828 -0.0117188 7.7361 0.0351562ZM8.43922 1.06641C8.65016 1.13672 8.66188 1.38281 8.74391 1.55859C9.07203 2.46094 9.47047 3.33984 9.76344 4.25391C8.90797 4.27734 8.0525 4.28906 7.19703 4.25391C7.58375 3.17578 8.01735 2.12109 8.43922 1.06641ZM12.4353 0.0351562C13.115 -0.0117188 13.8064 -0.0117188 14.4861 0.0351562C15.1306 2.00391 15.7517 3.98438 16.3494 5.96484C16.5252 5.92969 16.5252 5.71875 16.5838 5.58984C17.1697 3.75 17.7556 1.91016 18.3298 0.0585943C19.0095 -0.023437 19.7009 0.0117188 20.3806 0.0351562C20.4041 2.34375 20.4041 4.65234 20.3806 6.96094C20.0173 6.99609 19.6658 6.99609 19.3025 6.96094C19.2556 4.91016 19.3142 2.87109 19.2673 0.820313C18.8806 1.75781 18.658 2.75391 18.3064 3.71484C17.9197 4.79297 17.6853 5.92969 17.2166 6.97266C16.6775 6.97266 16.1267 7.01953 15.5759 6.94922C14.8728 4.875 14.2869 2.77734 13.5134 0.726563C13.5017 2.8125 13.5486 4.88672 13.49 6.97266C13.1384 6.98437 12.7752 7.03125 12.4353 6.9375C12.447 4.62891 12.447 2.33203 12.4353 0.0351562ZM21.5994 0.0117191C21.9392 3.56697e-07 22.2908 0.0117189 22.6306 0.0234377C22.6775 2.05078 22.6306 4.07813 22.6541 6.10547C22.6541 6.38672 22.6541 6.66797 22.6306 6.94922C22.2908 6.98438 21.9509 6.98438 21.5994 6.96094C21.5408 5.50781 21.5877 4.04297 21.5759 2.58984C21.5877 1.73438 21.5408 0.867188 21.5994 0.0117191ZM23.7791 0.0234377C24.1306 1.80677e-07 24.4939 1.80677e-07 24.8455 0.0234377C24.8806 1.96875 24.8455 3.92578 24.8572 5.87109C25.115 5.96484 25.3728 5.91797 25.6423 5.92969C26.7556 5.92969 27.8689 5.91797 28.9939 5.92969C29.0173 6.25781 29.0173 6.59766 29.0056 6.92578C28.6658 7.00781 28.3259 6.97266 27.9861 6.97266C26.5798 6.96094 25.1853 6.99609 23.7791 6.94922C23.7556 4.64062 23.7673 2.33203 23.7791 0.0234377ZM27.7752 0.0234377C28.6541 1.32422 29.533 2.61328 30.4119 3.91406C30.4822 4.00781 30.5291 4.11328 30.5291 4.24219C30.5642 5.14453 30.4822 6.04688 30.5642 6.94922C30.9158 7.00781 31.2673 6.99609 31.6306 6.96094C31.6892 6.02344 31.6072 5.08594 31.6658 4.14844C32.5213 2.74219 33.5173 1.41797 34.4197 0.0351562C33.9861 0.046875 33.5173 -0.0703118 33.1189 0.105469C32.5681 0.960938 31.9939 1.79297 31.4431 2.64844C31.3377 2.8125 31.2439 3 31.0564 3.08203C30.4002 2.08594 29.7908 1.05469 29.1345 0.0468757C28.6775 -0.011718 28.2322 1.80677e-07 27.7752 0.0234377ZM41.4744 7.64063C36.0603 13.0078 29.4392 17.1328 22.2791 19.7344C19.5486 20.7539 16.7478 21.6094 13.9236 22.3359C14.0291 22.4883 14.1345 22.6289 14.2869 22.7461C16.0095 24.1875 17.697 25.6758 19.408 27.1172C19.8181 27.457 20.1931 27.832 20.6267 28.125C20.8142 28.0547 21.0017 27.9844 21.1892 27.9023C24.5408 26.2969 27.7048 24.3398 30.7869 22.2539C33.9275 20.0625 37.0213 17.7539 39.7048 15C41.7791 12.8672 43.6658 10.5117 45.0017 7.85156C45.3298 8.35547 45.5759 8.90625 45.9041 9.42188C47.9314 12.7617 50.7088 15.5742 53.6736 18.082V12.0586C51.9509 10.8047 50.3572 9.375 48.822 7.91016C47.7673 6.89062 46.783 5.80078 45.8572 4.66406C45.5759 4.32422 45.3298 3.9375 45.0017 3.64453C43.865 5.01563 42.7517 6.39844 41.4744 7.64063ZM34.0213 25.2656C40.5603 25.2539 47.1111 25.2656 53.6502 25.2539V31.6758C47.5916 31.6875 41.5447 31.6758 35.4861 31.6758C34.9939 31.6758 34.5017 31.6992 34.0213 31.6289C34.0213 29.5078 34.0213 27.3867 34.0213 25.2656ZM30.283 37.2188C31.1619 37.1719 32.0291 37.207 32.908 37.207C39.822 37.207 46.7361 37.207 53.6502 37.207V43.582C45.8689 43.5703 38.0877 43.582 30.3064 43.5703C30.2361 42.8438 30.283 42.1055 30.2713 41.3672C30.283 39.9961 30.2478 38.6133 30.283 37.2188Z" fill="#404040"/>
</svg>
