<svg width="111" height="30" viewBox="0 0 111 30" fill="none" xmlns="http://www.w3.org/2000/svg">
<path d="M87.9186 8.98522L92.0011 5.97044H78.3337V24.0296H92.0011V21.0148H82.2387V16.4039H90.5811V13.3892H82.2387V8.98522H87.9186Z" fill="#404040"/>
<path d="M68.0092 13.0049H63.2758V8.98522H70.8491L74.9316 5.97044H59.3709V24.0296H67.5062C72.062 24.0296 74.695 21.9606 74.695 18.3547C74.695 14.8966 72.3283 13.0049 68.0092 13.0049ZM67.3583 21.0148H63.2758V16.0197H67.3583C69.8433 16.0197 70.9971 16.8473 70.9971 18.532C70.9971 20.2167 69.7546 21.0148 67.3583 21.0148Z" fill="#404040"/>
<path d="M103.065 5.97044H95.6399V24.0296H99.5448V18.9163H103.095C107.828 18.9163 110.786 16.4335 110.786 12.4433C110.786 8.4532 107.828 5.97044 103.065 5.97044ZM102.976 15.9015H99.5152V8.98522H102.976C105.491 8.98522 106.852 10.2266 106.852 12.4433C106.852 14.6601 105.491 15.9015 102.976 15.9015Z" fill="#404040"/>
<path d="M52.6851 20.1281C51.6496 20.6897 50.4959 20.9852 49.3126 20.9852C45.7922 20.9852 43.248 18.4729 43.248 15.0148C43.248 11.5566 45.7922 9.04433 49.3126 9.04433C50.5847 9.01478 51.8271 9.42857 52.8626 10.1675L55.673 8.09852L55.4955 7.92118C53.8684 6.47291 51.6792 5.73399 49.1942 5.73399C46.5022 5.73399 44.0468 6.65025 42.2718 8.30542C40.4968 10.0197 39.491 12.4138 39.5501 14.8966C39.5205 17.4089 40.4968 19.8325 42.2718 21.6059C44.1355 23.3498 46.6205 24.3251 49.1647 24.266C51.9751 24.266 54.4305 23.2906 56.0871 21.5172L53.5726 19.6552L52.6851 20.1281Z" fill="#404040"/>
<path d="M27.3323 5.85222C28.0423 6.76847 28.6339 7.7734 29.1368 8.83744L15.4694 18.9163L9.73028 15.3103V10.9951L15.4398 14.5714L27.3323 5.85222Z" fill="#404040"/>
<path d="M3.90239 15.0148C3.90239 14.8079 3.90239 14.6305 3.93198 14.4236L0.470745 14.2463C0.470745 14.4828 0.441162 14.7488 0.441162 14.9852C0.441162 19.1232 2.1274 22.8768 4.84906 25.5961L7.30446 23.1429C5.20405 21.0739 3.90239 18.2069 3.90239 15.0148Z" fill="#404040"/>
<path d="M15.4398 3.48768C15.6469 3.48768 15.8244 3.48769 16.0315 3.51724L16.209 0.0591137C15.9723 0.0591137 15.7061 0.029557 15.4694 0.029557C11.3278 0.029557 7.57071 1.71429 4.84906 4.4335L7.30446 6.8867C9.37528 4.78818 12.2744 3.48768 15.4398 3.48768Z" fill="#404040"/>
<path d="M15.4398 26.5419C15.2328 26.5419 15.0553 26.5419 14.8482 26.5123L14.6707 29.9704C14.9073 29.9704 15.1736 30 15.4103 30C19.5519 30 23.309 28.3153 26.0306 25.5961L23.5752 23.1429C21.5044 25.2709 18.6348 26.5419 15.4398 26.5419Z" fill="#404040"/>
<path d="M21.9481 5.49754L24.8769 3.3399C22.3031 1.27094 19.0194 0 15.4398 0V3.45813C17.8657 3.48768 20.114 4.2266 21.9481 5.49754Z" fill="#404040"/>
<path d="M30.4681 15.0148C30.4681 14.0985 30.3793 13.2118 30.2314 12.3251L27.0069 14.7192C27.0069 14.8079 27.0069 14.9261 27.0069 15.0148C27.0069 18.4138 25.5277 21.4581 23.1906 23.5566L25.5277 26.1281C28.5452 23.4089 30.4681 19.4187 30.4681 15.0148Z" fill="#404040"/>
<path d="M15.4398 26.5419C12.0378 26.5419 8.9907 25.064 6.8903 22.7291L4.31656 25.064C7.0678 28.1084 11.0319 30 15.4398 30L15.4398 26.5419Z" fill="#404040"/>
<path d="M7.71863 6.47291L5.38155 3.90148C2.33449 6.65025 0.441162 10.6108 0.441162 15.0148L3.90239 15.0148C3.90239 11.6453 5.38155 8.57143 7.71863 6.47291Z" fill="#404040"/>
</svg>
