<svg width="24" height="26" viewBox="0 0 24 26" fill="none" xmlns="http://www.w3.org/2000/svg">
<path d="M11.7834 21.4349C12.2932 21.4349 13 19.5 13 16.3717V9.07219C14.9581 8.53922 16.3832 6.74332 16.3832 4.62299C16.3832 2.07398 14.344 0 11.7834 0C9.2344 0 7.19519 2.07398 7.19519 4.62299C7.19519 6.73173 8.60873 8.52763 10.5668 9.06061V16.3717C10.5668 19.4884 11.2852 21.4349 11.7834 21.4349ZM10.4857 4.8779C9.65152 4.8779 8.90998 4.14795 8.90998 3.29055C8.90998 2.44474 9.65152 1.72638 10.4857 1.72638C11.3547 1.72638 12.0615 2.44474 12.0615 3.29055C12.0615 4.14795 11.3547 4.8779 10.4857 4.8779ZM11.7834 26C19.1524 26 23.5668 23.5205 23.5668 20.6702C23.5668 17.5535 18.7932 15.5374 14.9813 15.3752V17.4492C17.5766 17.5651 20.9251 18.7585 20.9251 20.4385C20.9251 22.4314 17.0784 23.8102 11.7834 23.8102C6.48841 23.8102 2.6533 22.443 2.6533 20.4385C2.6533 18.7585 6.00178 17.5651 8.58556 17.4492V15.3752C4.77362 15.5374 0 17.5535 0 20.6702C0 23.5205 4.41444 26 11.7834 26Z" fill="#404040"/>
</svg>
