<svg width="27" height="26" viewBox="0 0 27 26" fill="none" xmlns="http://www.w3.org/2000/svg">
<path d="M13 26C20.1286 26 26.0126 20.1161 26.0126 13C26.0126 5.88395 20.1161 0 12.9874 0C5.87137 0 0 5.88395 0 13C0 20.1161 5.88395 26 13 26ZM13 23.4101C7.22921 23.4101 2.61509 18.7708 2.61509 13C2.61509 7.22921 7.22921 2.60251 12.9874 2.60251C18.7582 2.60251 23.3975 7.22921 23.4101 13C23.4226 18.7708 18.7708 23.4101 13 23.4101ZM12.9874 7.17892C13.6915 7.17892 14.2824 6.58801 14.2824 5.88395C14.2824 5.16731 13.6915 4.58897 12.9874 4.58897C12.2708 4.58897 11.705 5.16731 11.705 5.88395C11.705 6.58801 12.2834 7.17892 12.9874 7.17892ZM8.02128 9.36654C8.73791 9.36654 9.31625 8.77563 9.31625 8.07157C9.31625 7.36751 8.73791 6.7766 8.02128 6.7766C7.31721 6.7766 6.72631 7.36751 6.72631 8.07157C6.72631 8.77563 7.31721 9.36654 8.02128 9.36654ZM11.0135 14.9739C12.0822 16.0174 13.5532 15.7785 14.4081 14.5464L19.0222 7.99613C19.5377 7.24178 18.7834 6.5 18.0416 7.0029L11.4284 11.5667C10.1963 12.4091 9.97002 13.8927 11.0135 14.9739ZM5.93424 14.295C6.65087 14.295 7.22921 13.7041 7.22921 13C7.22921 12.2834 6.65087 11.705 5.93424 11.705C5.23017 11.705 4.63927 12.2834 4.63927 13C4.63927 13.7041 5.23017 14.295 5.93424 14.295ZM20.0532 14.295C20.7573 14.295 21.3482 13.7041 21.3482 13C21.3482 12.2834 20.7573 11.705 20.0532 11.705C19.3366 11.705 18.7582 12.2834 18.7582 13C18.7582 13.7041 19.3366 14.295 20.0532 14.295ZM8.04642 19.2234C8.76306 19.2234 9.34139 18.6325 9.34139 17.9284C9.34139 17.2118 8.76306 16.6335 8.04642 16.6335C7.34236 16.6335 6.75145 17.2118 6.75145 17.9284C6.75145 18.6325 7.34236 19.2234 8.04642 19.2234ZM17.941 19.2234C18.6451 19.2234 19.236 18.6325 19.236 17.9284C19.236 17.2118 18.6451 16.6335 17.941 16.6335C17.2244 16.6335 16.646 17.2118 16.646 17.9284C16.646 18.6325 17.2244 19.2234 17.941 19.2234Z" fill="#404040"/>
</svg>
