<svg width="26" height="26" viewBox="0 0 26 26" fill="none" xmlns="http://www.w3.org/2000/svg">
<path d="M6.20166 17.7479C6.13024 22.4379 9.93932 25.9375 15.8077 25.9851L17.5218 25.997C19.1287 26.0208 20.3548 25.9018 21.069 25.7113C22.1403 25.4494 23.0807 24.7709 23.0807 23.5687C23.0807 23.0926 22.9735 22.7474 22.8188 22.4736C22.7355 22.3307 22.7474 22.2117 22.8783 22.1641C23.6877 21.7951 24.2948 21.0452 24.2948 20.0572C24.2948 19.4977 24.1401 18.9978 23.8782 18.6288C23.7591 18.4621 23.783 18.3193 23.9734 18.2122C24.5448 17.8432 24.9257 17.129 24.9257 16.2957C24.9257 15.7006 24.7471 15.0697 24.4138 14.7483C24.2591 14.5935 24.2829 14.4864 24.4614 14.3317C24.8543 13.9865 25.0923 13.3794 25.0923 12.689C25.0923 11.4034 24.0924 10.3678 22.795 10.3678H18.3669C17.2956 10.3678 16.5933 9.83219 16.5933 8.96324C16.5933 7.30868 18.7002 4.2138 18.7002 1.96406C18.7002 0.749913 17.9146 0 16.8552 0C15.9386 0 15.4625 0.607072 14.9268 1.61886C13.058 5.24939 10.5821 8.20143 8.66566 10.7249C7.01109 12.9271 6.24927 14.7959 6.20166 17.7479ZM0 17.8432C0 21.6642 2.36877 24.8066 5.52317 24.8066H7.66578C5.45175 23.1045 4.39235 20.5928 4.43996 17.7122C4.48757 14.6293 5.58268 12.3914 6.76112 10.844H5.05894C2.19022 10.844 0 13.9031 0 17.8432Z" fill="#404040"/>
</svg>
