<svg width="26" height="24" viewBox="0 0 26 24" fill="none" xmlns="http://www.w3.org/2000/svg">
<path d="M9.37917 20.4206L15.1668 23.6481C15.458 23.8059 15.7007 23.9272 16.004 24V3.84631L10.3741 0.448938C10.0101 0.230536 9.67037 0.0728008 9.37917 0V20.4206ZM0 22.0465C0 23.1021 0.667341 23.6845 1.63802 23.6845C1.98989 23.6845 2.35389 23.5753 2.76643 23.3569L7.59555 20.7361V0.133468C7.32861 0.242669 7.01314 0.376137 6.68554 0.570273L1.20121 3.68857C0.376137 4.14965 0 4.80485 0 5.727V22.0465ZM17.7755 23.9393C17.9211 23.9029 18.0667 23.8423 18.2002 23.7452L24.3397 20.275C25.1891 19.8018 25.5774 19.1587 25.5774 18.2366V2.00202C25.5774 0.897877 24.8979 0.351871 23.8665 0.351871C23.4904 0.351871 23.09 0.461072 22.6653 0.691608L17.7755 3.4095V23.9393Z" fill="#404040"/>
</svg>
