<svg width="29" height="26" viewBox="0 0 29 26" fill="none" xmlns="http://www.w3.org/2000/svg">
<path d="M0.982839 10.4226C-0.0103908 10.4226 -0.261842 11.177 0.278777 11.9188L3.34648 16.1683C3.77394 16.7592 4.42771 16.7466 4.84261 16.1683L7.91031 11.9062C8.43835 11.1896 8.19947 10.4226 7.21882 10.4226H5.3958C6.5399 5.90909 10.6008 2.60251 15.4915 2.60251C21.2623 2.60251 25.889 7.22921 25.889 13C25.889 18.7708 21.2623 23.4226 15.4915 23.4101C12.1347 23.3975 9.1927 21.8259 7.30682 19.3491C6.79135 18.7582 6.037 18.5696 5.42094 19.0222C4.84261 19.4371 4.72945 20.2544 5.29522 20.9458C7.60856 23.9632 11.4306 26 15.4915 26C22.6076 26 28.4915 20.1161 28.4915 13C28.4915 5.88395 22.6076 0 15.4915 0C9.24299 0 3.94996 4.51354 2.74299 10.4226H0.982839ZM15.0264 5.7205C14.4103 5.7205 13.92 6.21083 13.92 6.81431V13.6286C13.92 13.9304 14.0206 14.207 14.2343 14.4961L17.2266 18.4439C17.6792 19.0348 18.3329 19.1354 18.8736 18.7456C19.389 18.381 19.4393 17.7147 19.037 17.1741L16.1202 13.2515V6.81431C16.1202 6.21083 15.6298 5.7205 15.0264 5.7205Z" fill="#404040"/>
</svg>
